<svg id="Layer_1" data-name="Layer 1" xmlns="http://www.w3.org/2000/svg" viewBox="0 0 22 22"><defs><style>.cls-1{fill:#fff5c3;}.cls-2{fill:none;stroke:#fff5c3;stroke-width:2px;}</style></defs><path class="cls-1" d="M9.92,9.63l1.07-1a2,2,0,0,0,.6-1,2.09,2.09,0,0,0-.07-1.16l-.46-1.23A1.94,1.94,0,0,0,8.7,4.08a3.53,3.53,0,0,0-2.63,4,15.34,15.34,0,0,0,1.75,4.47,16,16,0,0,0,3,3.77,3.52,3.52,0,0,0,4.8-.25,1.93,1.93,0,0,0,.6-1.27,1.89,1.89,0,0,0-.43-1.33l-.84-1a2,2,0,0,0-2.14-.64l-1.39.44a6.51,6.51,0,0,1-.94-1.22,6.76,6.76,0,0,1-.59-1.42"/><circle class="cls-2" cx="11" cy="11" r="10"/></svg>