<svg id="Layer_1" data-name="Layer 1" xmlns="http://www.w3.org/2000/svg" viewBox="0 0 77.7 74.3"><defs><style>.cls-1{fill:#fff;fill-opacity:0.5;opacity:0.65;isolation:isolate;}</style></defs><path class="cls-1" d="M52.39,69.32v-65a3.74,3.74,0,0,0-.49-1.86,3.56,3.56,0,0,0-1.34-1.33A3.22,3.22,0,0,0,48.77.73,3.32,3.32,0,0,0,47,1.36L2.62,33.85a3.89,3.89,0,0,0,0,5.94L47,72.29a3.32,3.32,0,0,0,1.74.63,3.13,3.13,0,0,0,1.79-.4,3.49,3.49,0,0,0,1.34-1.33A3.78,3.78,0,0,0,52.39,69.32Z"/><path class="cls-1" d="M76.46,69.32v-65A3.74,3.74,0,0,0,76,2.47a3.56,3.56,0,0,0-1.34-1.33A3.22,3.22,0,0,0,72.84.73a3.38,3.38,0,0,0-1.74.63L26.69,33.85a3.89,3.89,0,0,0,0,5.94L71.1,72.29a3.38,3.38,0,0,0,1.74.63,3.18,3.18,0,0,0,1.8-.4A3.54,3.54,0,0,0,76,71.19,3.58,3.58,0,0,0,76.46,69.32Z"/></svg>