<svg id="Layer_1" data-name="Layer 1" xmlns="http://www.w3.org/2000/svg" viewBox="0 0 64 50"><defs><style>.cls-1{fill:#424242;}</style></defs><path class="cls-1" d="M12.44,7.14A5.35,5.35,0,0,0,7.11,12.5V25H17.78V12.5A5.35,5.35,0,0,0,12.44,7.14ZM0,12.5a12.45,12.45,0,1,1,24.89,0v25A12.45,12.45,0,1,1,0,37.5ZM61.66,41a2.36,2.36,0,0,1-3.76.35L37.06,20.41a2.37,2.37,0,0,1,.34-3.77A17.77,17.77,0,0,1,64,32.14,17.91,17.91,0,0,1,61.66,41ZM55,47.65A17.83,17.83,0,0,1,30.79,23.28a2.35,2.35,0,0,1,3.75-.34L55.39,43.87A2.38,2.38,0,0,1,55,47.65Z"/></svg>