<svg id="Layer_1" data-name="Layer 1" xmlns="http://www.w3.org/2000/svg" xmlns:xlink="http://www.w3.org/1999/xlink" viewBox="0 0 87.51 94.3"><defs><style>.cls-1{fill:url(#linear-gradient);}</style><linearGradient id="linear-gradient" y1="47.15" x2="87.51" y2="47.15" gradientUnits="userSpaceOnUse"><stop offset="0" stop-color="#1bb5f2"/><stop offset="1" stop-color="#044bd9"/></linearGradient></defs><path class="cls-1" d="M47.78,3.59c.17.84.3,1.69.41,2.54-.79.6-1.57,1.21-2.34,1.84a39.24,39.24,0,0,1,10.32,76.4,55,55,0,0,1-6.05,6.07A43.75,43.75,0,0,0,47.78,3.59ZM41.65,86.33A39.23,39.23,0,0,1,31.34,9.93a55.74,55.74,0,0,1,6-6.06,43.75,43.75,0,0,0,2.34,86.85c-.16-.84-.3-1.69-.41-2.55C40.1,87.58,40.88,87,41.65,86.33Zm15.12-55.8-8.93-8.92a42,42,0,0,0,.88-4.52l7.57,7.57A43.71,43.71,0,0,1,56.77,30.53Zm-.26,5.14a39.25,39.25,0,0,1-.78,4.61l-10.8-10.8a39.24,39.24,0,0,0,1.62-3.77Zm-2,8.81c-.45,1.31-1,2.6-1.54,3.85L40.83,36.15c.77-1,1.5-2.09,2.19-3.2Zm-3.39,7.39C50.5,53,49.79,54.09,49,55.14L36.34,42.45a37.3,37.3,0,0,1,2.12-3.27Zm-4.48,6.3a37.61,37.61,0,0,0-2.19,3.2L33,49.85c.45-1.32,1-2.6,1.53-3.85Zm-4.11,6.67q-.9,1.84-1.62,3.78l-10-10a43.46,43.46,0,0,1,.78-4.61Zm-2.9,7.89a41.61,41.61,0,0,0-.88,4.5l-7.56-7.56a40.54,40.54,0,0,1-.48-5.87ZM41.25,84.3q0-.7,0-1.44A40.84,40.84,0,0,1,49.65,58a.1.1,0,0,1,0-.05c.47-.55.93-1.11,1.37-1.69l0,0A41.44,41.44,0,0,0,53.87,10,56.88,56.88,0,0,1,65.63,32c.11.4.22.79.31,1.19a59.1,59.1,0,0,1-.71,12.33c-.08.69-.24,1.37-.37,2.05s-.27,1.36-.42,2l-.53,2-.26,1c-.09.33-.21.66-.31,1l-.63,2c-.22.65-.49,1.29-.73,1.93-.46,1.3-1,2.55-1.62,3.8-.27.64-.6,1.25-.92,1.86s-.62,1.23-.95,1.82L57.44,66.8l-.52.89-.58.85L55.2,70.25,54,71.91C53.18,73,52.26,74,51.39,75.1A59.36,59.36,0,0,1,41.25,84.3ZM67.68,47.22a57.38,57.38,0,0,1-1.77,14.15A57.09,57.09,0,0,1,42.84,94.3a41.39,41.39,0,0,1-1.27-6.13A63.89,63.89,0,0,0,53.35,76.72c.85-1.15,1.75-2.26,2.52-3.46.39-.59.8-1.18,1.18-1.78l1.1-1.82.54-.92.49-.95,1-1.88c.32-.64.6-1.29.9-1.94s.6-1.28.84-1.94c.52-1.32,1.06-2.63,1.47-4,.21-.67.45-1.34.64-2L64.56,54c.09-.34.19-.68.27-1l.22-1,.43-2.07c.11-.7.21-1.4.31-2.09s.23-1.39.28-2.09a59.71,59.71,0,0,0,.22-11,57.43,57.43,0,0,1,1.33,9.89C67.66,45.42,67.68,46.32,67.68,47.22Zm-16.62,9M49.65,58m-3.4-48q0,.72,0,1.44a40.88,40.88,0,0,1-8.42,24.91l0,0c-.48.54-.93,1.11-1.38,1.69l0,0A41.44,41.44,0,0,0,33.64,84.3a56.83,56.83,0,0,1-11.77-22c-.11-.39-.21-.79-.31-1.19a59.11,59.11,0,0,1,.72-12.33c.08-.69.24-1.36.37-2s.26-1.36.42-2l.52-2,.26-1c.1-.33.21-.65.31-1l.64-2c.21-.66.48-1.29.73-1.94.46-1.29,1-2.55,1.61-3.8.27-.64.61-1.24.92-1.85s.62-1.23,1-1.83l1-1.78.53-.88.57-.86,1.14-1.71,1.23-1.65c.79-1.12,1.71-2.14,2.58-3.19A60.61,60.61,0,0,1,46.25,10ZM19.83,47.08A56.83,56.83,0,0,1,44.66,0a39,39,0,0,1,1.27,6.13A63.58,63.58,0,0,0,34.16,17.59c-.85,1.14-1.75,2.25-2.52,3.45-.4.6-.8,1.18-1.19,1.78l-1.09,1.83-.54.92-.5.94-1,1.89c-.31.63-.6,1.29-.89,1.93s-.61,1.28-.84,2c-.52,1.32-1.06,2.63-1.47,4-.21.68-.46,1.34-.65,2l-.54,2c-.09.34-.19.68-.27,1l-.21,1L22,44.47c-.12.69-.21,1.39-.32,2.08s-.23,1.39-.27,2.1a59.71,59.71,0,0,0-.22,11,55.65,55.65,0,0,1-1.33-9.9C19.84,48.88,19.83,48,19.83,47.08Zm16.61-9,1.42-1.74,13.2,19.86M49.65,58,19.83,47.08A56.83,56.83,0,0,1,44.66,0a39,39,0,0,1,1.27,6.13A63.58,63.58,0,0,0,34.16,17.59c-.85,1.14-1.75,2.25-2.52,3.45-.4.6-.8,1.18-1.19,1.78l-1.09,1.83-.54.92-.5.94-1,1.89c-.31.63-.6,1.29-.89,1.93s-.61,1.28-.84,2c-.52,1.32-1.06,2.63-1.47,4-.21.68-.46,1.34-.65,2l-.54,2c-.09.34-.19.68-.27,1l-.21,1L22,44.47c-.12.69-.21,1.39-.32,2.08s-.23,1.39-.27,2.1a59.71,59.71,0,0,0-.22,11,55.65,55.65,0,0,1-1.33-9.9C19.84,48.88,19.83,48,19.83,47.08Z"/></svg>