<svg id="Layer_1" data-name="Layer 1" xmlns="http://www.w3.org/2000/svg" viewBox="0 0 44 50"><defs><style>.cls-1{fill:#424242;}</style></defs><path class="cls-1" d="M44,23.15V45.37a4.52,4.52,0,0,1-1.4,3.27A4.86,4.86,0,0,1,39.22,50H4.78A4.86,4.86,0,0,1,1.4,48.64,4.52,4.52,0,0,1,0,45.37V23.15a4.52,4.52,0,0,1,1.4-3.27,4.86,4.86,0,0,1,3.38-1.36H9.57a2.88,2.88,0,0,1,2,.81,2.72,2.72,0,0,1,0,3.93,2.89,2.89,0,0,1-2,.82H5.74V44.44H38.26V24.08H34.43a2.89,2.89,0,0,1-2-.82,2.72,2.72,0,0,1,0-3.93,2.88,2.88,0,0,1,2-.81h4.79a4.86,4.86,0,0,1,3.38,1.36A4.52,4.52,0,0,1,44,23.15ZM14.47,14l4.66-4.51V28.7a2.73,2.73,0,0,0,.84,2,2.95,2.95,0,0,0,4.06,0,2.73,2.73,0,0,0,.84-2V9.49L29.53,14a2.9,2.9,0,0,0,.94.6,2.86,2.86,0,0,0,2.2,0,2.86,2.86,0,0,0,.93-.6,2.71,2.71,0,0,0,.62-3,2.55,2.55,0,0,0-.62-.9L24,.82A2.78,2.78,0,0,0,23.1.21a3,3,0,0,0-2.2,0A2.89,2.89,0,0,0,20,.82L10.4,10.08a2.84,2.84,0,0,0-.62.9,2.71,2.71,0,0,0,.62,3,2.94,2.94,0,0,0,4.07,0Z"/></svg>