<svg width="44" height="51" viewBox="0 0 44 51" fill="none" xmlns="http://www.w3.org/2000/svg">
<path d="M44 23.6493V45.8706C44 47.0984 43.4961 48.2759 42.5992 49.1441C41.7023 50.0123 40.4858 50.5 39.2174 50.5H4.78261C3.51418 50.5 2.29771 50.0123 1.40079 49.1441C0.503881 48.2759 0 47.0984 0 45.8706V23.6493C0 22.4215 0.503881 21.244 1.40079 20.3758C2.29771 19.5076 3.51418 19.0199 4.78261 19.0199H9.56522C10.3263 19.0199 11.0562 19.3125 11.5943 19.8335C12.1325 20.3544 12.4348 21.0609 12.4348 21.7976C12.4348 22.5342 12.1325 23.2407 11.5943 23.7617C11.0562 24.2826 10.3263 24.5752 9.56522 24.5752H5.73913V44.9447H38.2609V24.5752H34.4348C33.6737 24.5752 32.9438 24.2826 32.4057 23.7617C31.8675 23.2407 31.5652 22.5342 31.5652 21.7976C31.5652 21.0609 31.8675 20.3544 32.4057 19.8335C32.9438 19.3125 33.6737 19.0199 34.4348 19.0199H39.2174C40.4858 19.0199 41.7023 19.5076 42.5992 20.3758C43.4961 21.244 44 22.4215 44 23.6493ZM14.465 14.5039L19.1304 9.99251V29.2046C19.1304 29.9413 19.4328 30.6478 19.9709 31.1687C20.5091 31.6896 21.2389 31.9823 22 31.9823C22.7611 31.9823 23.4909 31.6896 24.0291 31.1687C24.5672 30.6478 24.8696 29.9413 24.8696 29.2046V9.99251L29.535 14.5108C29.8019 14.7692 30.1188 14.9742 30.4676 15.114C30.8163 15.2538 31.1901 15.3258 31.5676 15.3258C31.9451 15.3258 32.3189 15.2538 32.6676 15.114C33.0164 14.9742 33.3333 14.7692 33.6002 14.5108C33.8671 14.2525 34.0789 13.9457 34.2233 13.6081C34.3678 13.2706 34.4422 12.9087 34.4422 12.5433C34.4422 12.1779 34.3678 11.8161 34.2233 11.4785C34.0789 11.1409 33.8671 10.8342 33.6002 10.5758L24.035 1.31697C23.7684 1.05802 23.4516 0.852554 23.1028 0.71236C22.754 0.572166 22.3801 0.5 22.0024 0.5C21.6247 0.5 21.2508 0.572166 20.902 0.71236C20.5532 0.852554 20.2364 1.05802 19.9698 1.31697L10.4046 10.5758C10.1376 10.8342 9.9259 11.1409 9.78144 11.4785C9.63698 11.8161 9.56263 12.1779 9.56263 12.5433C9.56263 13.2813 9.86548 13.989 10.4046 14.5108C10.9436 15.0326 11.6748 15.3258 12.4372 15.3258C13.1996 15.3258 13.9307 15.0326 14.4698 14.5108L14.465 14.5039Z" fill="#414141"/>
</svg>
