<svg width="64" height="51" viewBox="0 0 64 51" fill="none" xmlns="http://www.w3.org/2000/svg">
<path d="M12.4444 7.64286C9.5 7.64286 7.11111 10.0424 7.11111 13V25.5H17.7778V13C17.7778 10.0424 15.3889 7.64286 12.4444 7.64286ZM0 13C0 6.09152 5.56667 0.5 12.4444 0.5C19.3222 0.5 24.8889 6.09152 24.8889 13V38C24.8889 44.9085 19.3222 50.5 12.4444 50.5C5.56667 50.5 0 44.9085 0 38V13ZM61.6556 41.5045C60.8667 42.8772 59.0222 42.9665 57.9 41.8504L37.0556 20.9129C35.9444 19.7969 36.0222 17.933 37.4 17.1406C40 15.6451 43.0111 14.7857 46.2222 14.7857C56.0444 14.7857 64 22.7768 64 32.6429C64 35.8683 63.1444 38.8929 61.6556 41.5045ZM55.0444 48.1451C52.4444 49.6406 49.4333 50.5 46.2222 50.5C36.4 50.5 28.4444 42.5089 28.4444 32.6429C28.4444 29.4174 29.3 26.3929 30.7889 23.7812C31.5778 22.4085 33.4222 22.3192 34.5444 23.4353L55.3889 44.3728C56.5 45.4888 56.4222 47.3527 55.0444 48.1451Z" fill="#414141"/>
</svg>
