<svg width="52" height="51" viewBox="0 0 52 51" fill="none" xmlns="http://www.w3.org/2000/svg">
<path d="M16.5455 36.2143V31.4524H21.6864C21.4894 32.246 21.3618 33.0397 21.3035 33.8333C21.2451 34.627 21.2546 35.4206 21.3318 36.2143H16.5455ZM16.5455 48.119C13.2758 48.119 10.489 46.9579 8.18527 44.6357C5.88151 42.3135 4.72885 39.5063 4.72727 36.2143V14.7857C3.42727 14.7857 2.31479 14.3198 1.38982 13.3881C0.464849 12.4563 0.00157576 11.3349 0 10.0238V5.2619C0 3.95238 0.463273 2.83175 1.38982 1.9C2.31636 0.968254 3.42885 0.501587 4.72727 0.5H28.3636C29.6636 0.5 30.7769 0.966667 31.7035 1.9C32.63 2.83333 33.0925 3.95397 33.0909 5.2619V10.0238C33.0909 11.3333 32.6284 12.4548 31.7035 13.3881C30.7785 14.3214 29.6652 14.7873 28.3636 14.7857V21.9881C27.4182 22.5833 26.5515 23.2778 25.7636 24.0714C24.9758 24.8651 24.2864 25.7381 23.6955 26.6905H16.5455V21.9286H23.6364V14.7857H9.45455V36.2143C9.45455 38.1984 10.1439 39.8849 11.5227 41.2738C12.9015 42.6627 14.5758 43.3571 16.5455 43.3571C17.7273 43.3571 18.8012 43.0992 19.7671 42.5833C20.733 42.0675 21.5501 41.3532 22.2182 40.4405C22.5333 41.2341 22.8879 41.9881 23.2818 42.7024C23.6758 43.4167 24.1485 44.1111 24.7 44.7857C23.6364 45.8175 22.4151 46.631 21.0364 47.2262C19.6576 47.8214 18.1606 48.119 16.5455 48.119ZM36.6364 40.9762C38.2909 40.9762 39.6894 40.4008 40.8318 39.25C41.9742 38.0992 42.5455 36.6905 42.5455 35.0238C42.5455 33.3571 41.9742 31.9484 40.8318 30.7976C39.6894 29.6468 38.2909 29.0714 36.6364 29.0714C34.9818 29.0714 33.5833 29.6468 32.4409 30.7976C31.2985 31.9484 30.7273 33.3571 30.7273 35.0238C30.7273 36.6905 31.2985 38.0992 32.4409 39.25C33.5833 40.4008 34.9818 40.9762 36.6364 40.9762ZM48.6909 50.5L42.3091 44.0714C41.4424 44.627 40.5364 45.0437 39.5909 45.3214C38.6455 45.5992 37.6606 45.7381 36.6364 45.7381C33.6818 45.7381 31.1708 44.6968 29.1035 42.6143C27.0361 40.5317 26.0016 38.0016 26 35.0238C25.9984 32.046 27.0329 29.5167 29.1035 27.4357C31.174 25.3548 33.685 24.3127 36.6364 24.3095C39.5878 24.3063 42.0995 25.3484 44.1716 27.4357C46.2438 29.523 47.2775 32.0524 47.2727 35.0238C47.2727 36.0556 47.1348 37.0476 46.8591 38C46.5833 38.9524 46.1697 39.8651 45.6182 40.7381L52 47.1667L48.6909 50.5Z" fill="#414141"/>
</svg>
