<svg width="22" height="23" viewBox="0 0 22 23" fill="none" xmlns="http://www.w3.org/2000/svg">
<path d="M9.92099 10.1266L10.995 9.14262C11.2887 8.87304 11.4951 8.52185 11.5877 8.13413C11.6804 7.74641 11.655 7.33985 11.515 6.96662L11.057 5.74362C10.8859 5.28704 10.5471 4.91287 10.1098 4.69734C9.67239 4.48182 9.16931 4.44115 8.70299 4.58362C6.98699 5.10862 5.66799 6.70362 6.07399 8.59762C6.34099 9.84362 6.85199 11.4076 7.81999 13.0716C8.78999 14.7396 9.89799 15.9716 10.848 16.8376C12.282 18.1426 14.332 17.8166 15.651 16.5866C16.0043 16.2568 16.2187 15.8048 16.2505 15.3225C16.2823 14.8402 16.129 14.3639 15.822 13.9906L14.982 12.9706C14.7286 12.6622 14.3888 12.4366 14.0062 12.3229C13.6236 12.2092 13.2157 12.2126 12.835 12.3326L11.447 12.7696C11.0883 12.3999 10.7742 11.9894 10.511 11.5466C10.257 11.0988 10.0589 10.6216 9.92099 10.1256" fill="#75FF83"/>
<circle cx="11" cy="11.5" r="10" stroke="#75FF83" stroke-width="2"/>
</svg>
