<svg width="595" height="500" viewBox="0 0 595 500" fill="none" xmlns="http://www.w3.org/2000/svg">
<path d="M423.937 10.5645L397.231 5.4984C397.266 4.47459 396.878 3.43314 396.032 2.69176C394.568 1.42084 392.345 1.5797 391.075 3.06245C389.911 4.42164 389.981 6.41629 391.163 7.72253L373.683 28.0398C373.595 27.9338 373.507 27.8279 373.401 27.7397C371.919 26.4687 369.697 26.6453 368.444 28.1104C368.021 28.6046 367.774 29.1695 367.668 29.7696L341.104 24.7389C341.333 23.5385 340.945 22.2676 339.957 21.4203C339.022 20.626 337.805 20.3965 336.712 20.6966L327.68 -5.14565C328.051 -5.33981 328.386 -5.60459 328.686 -5.93997C329.762 -7.19325 329.797 -8.97608 328.88 -10.2647L346.607 -30.882C348.018 -30.1759 349.764 -30.476 350.84 -31.7293C352.11 -33.1944 351.952 -35.4185 350.47 -36.6894C349.659 -37.3778 348.636 -37.6426 347.648 -37.4837L338.634 -63.1142C338.969 -63.3083 339.287 -63.5555 339.569 -63.8555C340.839 -65.3383 340.663 -67.5448 339.199 -68.8157C337.735 -70.0866 335.512 -69.9101 334.242 -68.445C333.872 -68.0214 333.642 -67.5271 333.519 -67.0152L306.919 -72.046C307.06 -73.1757 306.655 -74.3407 305.72 -75.1351C304.238 -76.406 302.033 -76.2295 300.763 -74.7644C299.493 -73.2993 299.67 -71.0751 301.134 -69.8042L283.512 -49.3105C282.048 -50.5814 279.826 -50.4049 278.556 -48.9398C277.286 -47.4747 277.462 -45.2505 278.926 -43.9796C279.861 -43.1676 281.096 -42.9558 282.189 -43.2735L291.132 -17.749C290.638 -17.5372 290.18 -17.2371 289.827 -16.8135C288.557 -15.3484 288.733 -13.1243 290.197 -11.8533L272.594 8.60512C271.13 7.33419 268.907 7.5107 267.637 8.9758C267.214 9.47005 266.967 10.0349 266.861 10.6351L240.279 5.60431C240.508 4.40398 240.12 3.13306 239.132 2.28577C237.651 1.01484 235.446 1.19136 234.176 2.65646C232.906 4.12156 233.082 6.34568 234.546 7.61662L216.925 28.1104C215.443 26.8394 213.221 27.0159 211.968 28.481C210.698 29.9462 210.875 32.1703 212.339 33.4412C213.221 34.2002 214.332 34.4297 215.39 34.2002L224.333 59.7601C223.928 59.9542 223.54 60.2543 223.24 60.6073C221.97 62.0724 222.146 64.2966 223.61 65.5675L205.636 86.4672C204.172 85.4787 202.196 85.7082 201.014 87.0851C200.697 87.4557 200.468 87.8794 200.327 88.3207L173.709 83.2899C173.78 82.2308 173.374 81.154 172.51 80.4127C171.046 79.1417 168.823 79.3006 167.553 80.7834C166.389 82.1425 166.46 84.1548 167.641 85.4434L149.967 106.008C148.503 105.037 146.527 105.249 145.363 106.626C144.093 108.091 144.27 110.315 145.734 111.586C146.616 112.345 147.745 112.574 148.803 112.345L157.746 137.905C157.34 138.116 156.952 138.399 156.635 138.77C155.47 140.129 155.541 142.123 156.723 143.43L138.855 164.223C137.39 163.253 135.415 163.464 134.251 164.841C132.981 166.324 133.157 168.53 134.621 169.801C135.556 170.596 136.773 170.825 137.884 170.507L146.951 196.403C146.527 196.615 146.139 196.897 145.822 197.268C144.64 198.627 144.728 200.621 145.91 201.928L128.236 222.474C126.789 221.504 124.796 221.733 123.632 223.092C122.362 224.557 122.538 226.781 124.002 228.052C124.884 228.829 126.049 229.059 127.125 228.794L136.068 254.336C135.627 254.548 135.221 254.83 134.886 255.219C133.722 256.578 133.792 258.572 134.974 259.879L117.264 280.461C115.8 279.49 113.825 279.702 112.643 281.078C112.29 281.484 112.078 281.943 111.937 282.402L85.0025 277.301C85.1789 276.136 84.7909 274.918 83.8207 274.106C82.9211 273.329 81.757 273.1 80.6986 273.365L71.7556 247.805C72.1966 247.593 72.6199 247.31 72.9727 246.905C74.2427 245.439 74.0663 243.215 72.6023 241.944C71.1383 240.673 68.9157 240.85 67.6457 242.315C67.3106 242.721 67.0813 243.162 66.9402 243.639L40.3405 238.608C40.4463 237.514 40.0406 236.402 39.141 235.625C37.677 234.354 35.4545 234.531 34.1845 235.996C33.0027 237.355 33.0908 239.35 34.2727 240.656L16.5278 261.22C15.0638 260.249 13.0882 260.461 11.9064 261.838C10.6364 263.321 10.8127 265.527 12.2768 266.798C13.1235 267.522 14.2171 267.769 15.2225 267.575L24.1831 293.17C23.8127 293.364 23.4599 293.647 23.1601 293.982C21.9959 295.341 22.0665 297.336 23.2483 298.642L5.46812 319.33C4.00408 318.359 2.02851 318.589 0.846691 319.948C-0.42332 321.413 -0.246929 323.637 1.21711 324.908C2.09906 325.667 3.22796 325.896 4.26866 325.667L13.2117 351.227C12.806 351.439 12.4179 351.721 12.1004 352.092C10.8304 353.557 11.0068 355.781 12.4708 357.052C13.9349 358.323 16.1574 358.146 17.4274 356.681C17.7449 356.31 17.9742 355.887 18.1153 355.463L45.0325 360.565C44.8914 361.694 45.2971 362.877 46.2143 363.689C47.0962 364.43 48.2251 364.677 49.2835 364.448L58.2265 390.008C57.8208 390.202 57.4327 390.502 57.1152 390.873C55.8452 392.338 56.0216 394.562 57.4856 395.833C58.9673 397.104 61.1722 396.927 62.4422 395.462C62.7597 395.091 62.989 394.668 63.1301 394.227L89.7474 399.275C89.6945 400.334 90.0826 401.393 90.9469 402.135C92.4109 403.405 94.6334 403.229 95.9035 401.764C97.0676 400.405 96.9971 398.41 95.8329 397.121L113.472 376.61C114.918 377.581 116.912 377.351 118.076 375.992C118.358 375.657 118.57 375.286 118.711 374.898L145.963 380.052C145.751 381.252 146.122 382.523 147.11 383.371C148.044 384.165 149.262 384.395 150.355 384.077L159.263 409.531C158.822 409.742 158.416 410.025 158.081 410.413C156.917 411.772 156.987 413.785 158.169 415.073L140.495 435.62C139.031 434.649 137.055 434.879 135.891 436.238C134.621 437.703 134.798 439.927 136.262 441.198C137.126 441.939 138.272 442.186 139.313 441.957L148.256 467.517C147.85 467.729 147.462 468.011 147.145 468.382C145.875 469.847 146.051 472.071 147.515 473.342C148.997 474.613 151.202 474.436 152.472 472.971C152.789 472.601 153.019 472.177 153.16 471.736L179.777 476.766C179.724 477.825 180.112 478.885 180.977 479.626C181.894 480.42 183.111 480.65 184.204 480.35L193.394 506.633C193.059 506.827 192.742 507.075 192.46 507.392C191.19 508.857 191.366 511.081 192.83 512.352C194.294 513.623 196.517 513.447 197.787 511.982C198.157 511.558 198.386 511.064 198.51 510.552L225.074 515.583C224.933 516.712 225.339 517.895 226.274 518.707C227.156 519.466 228.284 519.696 229.325 519.466L238.268 545.026C237.862 545.238 237.474 545.52 237.157 545.891C235.887 547.356 236.063 549.58 237.527 550.851C238.991 552.122 241.214 551.945 242.484 550.48C242.801 550.11 243.031 549.686 243.172 549.245L269.789 554.275C269.736 555.335 270.124 556.394 270.989 557.135C272.453 558.406 274.675 558.229 275.945 556.764C277.109 555.405 277.039 553.411 275.857 552.104L293.496 531.593C294.942 532.564 296.936 532.334 298.1 530.975C299.37 529.51 299.193 527.286 297.729 526.015C296.865 525.256 295.736 525.026 294.695 525.256L285.752 499.678C286.158 499.467 286.546 499.184 286.864 498.813C288.045 497.454 287.957 495.46 286.775 494.153L304.714 473.289C306.178 474.26 308.154 474.03 309.318 472.671C310.588 471.206 310.412 468.982 308.948 467.711C307.995 466.899 306.725 466.687 305.614 467.023L296.583 441.198C296.988 440.986 297.359 440.721 297.676 440.351C298.841 438.991 298.77 436.997 297.588 435.691L315.227 415.179C316.691 416.168 318.667 415.938 319.849 414.561C321.119 413.096 320.942 410.872 319.478 409.601C318.614 408.86 317.485 408.613 316.444 408.842L307.501 383.265C307.907 383.071 308.295 382.771 308.613 382.4C309.883 380.935 309.706 378.711 308.242 377.44C306.76 376.169 304.556 376.345 303.286 377.81C302.968 378.181 302.739 378.605 302.598 379.046L275.998 374.015C276.069 372.956 275.663 371.879 274.799 371.138C273.335 369.867 271.112 370.026 269.842 371.509C268.678 372.868 268.748 374.862 269.93 376.169L252.256 396.715C250.792 395.745 248.816 395.974 247.652 397.333C247.299 397.739 247.07 398.216 246.947 398.692L220.488 393.679C220.664 392.514 220.259 391.296 219.306 390.484C218.301 389.619 216.943 389.443 215.778 389.867L206.659 363.795C207.153 363.601 207.611 363.283 208 362.859C209.217 361.429 209.093 359.329 207.753 358.04L225.356 337.564C226.82 338.694 228.937 338.5 230.154 337.088C231.424 335.605 231.265 333.398 229.784 332.127C228.849 331.315 227.596 331.104 226.485 331.421L217.56 305.879C218.071 305.667 218.53 305.367 218.918 304.926C220.153 303.496 220.012 301.396 218.689 300.107L236.222 279.702C237.686 280.672 239.662 280.443 240.826 279.084C242.096 277.619 241.919 275.395 240.455 274.124C239.609 273.382 238.497 273.153 237.474 273.347L228.602 247.964C229.025 247.769 229.431 247.469 229.766 247.081C231.036 245.616 230.86 243.392 229.396 242.121C227.914 240.85 225.691 241.026 224.439 242.492C224.157 242.809 223.963 243.18 223.822 243.551L196.64 238.414C196.763 237.302 196.358 236.155 195.441 235.378C194.594 234.637 193.5 234.407 192.477 234.601L183.517 209.006C183.905 208.812 184.275 208.529 184.575 208.176C185.845 206.694 185.669 204.487 184.204 203.216L204.436 179.686L194.241 150.543C194.682 150.349 195.088 150.049 195.441 149.661C196.605 148.302 196.534 146.307 195.37 145.001L213.009 124.489C214.455 125.46 216.449 125.231 217.613 123.871C217.966 123.465 218.195 122.989 218.336 122.477L245.341 127.596C245.2 128.726 245.606 129.908 246.541 130.72C247.405 131.479 248.552 131.709 249.592 131.479L258.535 157.039C258.13 157.251 257.742 157.533 257.424 157.904C256.154 159.369 256.33 161.593 257.794 162.864L240.05 183.499C238.586 182.528 236.61 182.758 235.446 184.117C234.176 185.582 234.352 187.806 235.816 189.077C236.681 189.819 237.792 190.048 238.833 189.836L247.776 215.378C247.405 215.59 247.052 215.837 246.752 216.19C245.482 217.673 245.659 219.88 247.123 221.151C248.605 222.421 250.809 222.245 252.079 220.78C252.379 220.444 252.573 220.056 252.714 219.65L279.596 224.734C279.455 225.864 279.861 227.064 280.796 227.858C281.678 228.617 282.807 228.847 283.847 228.617L292.79 254.177C292.385 254.389 291.997 254.671 291.679 255.042C290.515 256.401 290.585 258.396 291.767 259.702L273.899 280.496C272.435 279.525 270.459 279.755 269.295 281.114C268.025 282.579 268.202 284.803 269.666 286.074C270.6 286.868 271.818 287.098 272.911 286.798L281.766 312.128C281.448 312.322 281.131 312.552 280.866 312.869C279.596 314.352 279.773 316.559 281.237 317.829C282.718 319.083 284.923 318.924 286.193 317.459C286.458 317.159 286.634 316.806 286.775 316.453L313.128 321.448C312.987 322.578 313.393 323.76 314.328 324.555C315.809 325.826 318.014 325.667 319.284 324.184C320.466 322.825 320.395 320.83 319.214 319.524L337.258 298.536C338.722 299.507 340.698 299.277 341.862 297.918C342.074 297.671 342.233 297.389 342.374 297.106L369.45 302.225C369.45 303.214 369.838 304.202 370.667 304.908C371.531 305.65 372.66 305.897 373.701 305.667L382.644 331.227C382.238 331.421 381.867 331.721 381.55 332.074C380.28 333.54 380.456 335.764 381.92 337.035L364.264 357.564C362.8 356.593 360.824 356.822 359.66 358.182C358.39 359.664 358.566 361.871 360.03 363.142C360.824 363.83 361.83 364.077 362.8 363.954L371.937 390.061C371.637 390.255 371.355 390.467 371.108 390.749C369.838 392.214 370.014 394.456 371.478 395.709C372.942 396.98 375.165 396.804 376.435 395.339C376.77 394.95 376.999 394.491 377.14 394.015L403.528 399.01C403.546 399.981 403.934 400.952 404.745 401.64C406.209 402.911 408.432 402.735 409.702 401.27C410.884 399.91 410.796 397.898 409.614 396.609L426.794 376.61C428.258 377.581 430.234 377.369 431.416 376.01C432.668 374.527 432.509 372.303 431.045 371.05C430.269 370.379 429.299 370.132 428.364 370.22L419.156 343.884C419.597 343.672 420.021 343.389 420.356 342.983C421.432 341.73 421.467 339.947 420.55 338.659L438.277 318.041C439.688 318.747 441.452 318.447 442.51 317.194C443.781 315.729 443.604 313.505 442.14 312.234C441.276 311.475 440.129 311.245 439.106 311.475L430.163 285.897C430.587 285.686 430.975 285.403 431.292 285.032C432.474 283.673 432.386 281.679 431.222 280.372L448.878 259.826C450.342 260.796 452.318 260.567 453.482 259.208C453.764 258.89 453.941 258.537 454.082 258.184L480.911 263.268C480.875 264.292 481.281 265.333 482.128 266.074C483.592 267.345 485.814 267.169 487.084 265.704C488.213 264.397 488.196 262.509 487.155 261.202L504.97 240.497C506.434 241.468 508.41 241.238 509.574 239.879C509.892 239.508 510.121 239.085 510.262 238.643L536.879 243.674C536.826 244.733 537.232 245.792 538.079 246.534C539.56 247.805 541.765 247.628 543.035 246.163C544.217 244.804 544.147 242.809 542.965 241.503L560.604 220.992C562.068 221.962 564.043 221.751 565.208 220.374C566.478 218.909 566.301 216.685 564.837 215.414C563.973 214.672 562.844 214.425 561.803 214.655L552.843 189.077C553.248 188.883 553.636 188.583 553.954 188.212C555.136 186.853 555.048 184.858 553.866 183.552L571.822 162.67C573.286 163.641 575.262 163.411 576.426 162.052C577.696 160.57 577.537 158.363 576.056 157.092C575.103 156.262 573.815 156.051 572.687 156.421L563.832 131.073C564.22 130.862 564.573 130.597 564.872 130.244C566.143 128.779 565.984 126.554 564.502 125.284C563.038 124.013 560.816 124.189 559.546 125.654C559.246 126.007 559.034 126.413 558.875 126.819L532.523 121.824C532.717 120.659 532.311 119.423 531.358 118.594C529.894 117.323 527.672 117.499 526.402 118.964C525.238 120.323 525.308 122.318 526.49 123.624L508.533 144.506C507.069 143.536 505.094 143.765 503.912 145.124C503.647 145.442 503.453 145.795 503.312 146.148L476.289 141.029C476.36 139.97 475.954 138.893 475.09 138.152C473.626 136.881 471.403 137.057 470.133 138.522C468.969 139.882 469.04 141.876 470.204 143.182L452.424 163.853C450.96 162.882 448.984 163.111 447.82 164.471C447.502 164.841 447.273 165.265 447.132 165.706L420.515 160.675C420.585 159.616 420.179 158.54 419.315 157.798C417.851 156.527 415.629 156.704 414.359 158.169C413.194 159.528 413.265 161.523 414.447 162.811L396.772 183.376C395.308 182.405 393.333 182.634 392.169 183.993C391.886 184.311 391.692 184.682 391.551 185.053L364.528 179.934C364.599 178.874 364.193 177.798 363.329 177.056C361.865 175.785 359.625 175.962 358.372 177.427C357.208 178.786 357.279 180.781 358.461 182.087L340.68 202.757C339.216 201.786 337.241 201.998 336.059 203.375C335.741 203.746 335.512 204.169 335.371 204.611L308.754 199.58C308.824 198.521 308.419 197.444 307.554 196.703C306.619 195.891 305.402 195.679 304.309 195.979L295.083 169.643C295.489 169.431 295.86 169.148 296.177 168.795C297.359 167.436 297.288 165.441 296.107 164.135L313.746 143.624C315.21 144.595 317.185 144.365 318.349 143.006C319.619 141.541 319.443 139.317 317.979 138.046C317.115 137.304 315.986 137.057 314.945 137.287L306.002 111.709C306.408 111.497 306.796 111.215 307.113 110.844C308.277 109.485 308.225 107.491 307.043 106.184L325.087 85.1963C326.499 85.9024 328.262 85.6023 329.321 84.349C329.532 84.1019 329.691 83.8195 329.832 83.537L356.626 88.6031C356.697 89.5033 357.102 90.3859 357.843 91.0214C359.307 92.2923 361.53 92.1158 362.8 90.6507C363.876 89.3974 363.911 87.6146 362.994 86.326L380.721 65.7087C382.114 66.4148 383.878 66.1147 384.954 64.8614C385.131 64.6496 385.289 64.4201 385.413 64.173L412.93 69.3803C412.93 70.3688 413.318 71.3573 414.129 72.0634C414.994 72.8224 416.122 73.0519 417.163 72.8224L426.106 98.3822C425.701 98.594 425.312 98.8764 425.013 99.2295C423.743 100.695 423.919 102.919 425.383 104.19C426.847 105.461 429.07 105.284 430.34 103.819C430.551 103.572 430.71 103.289 430.851 103.007L457.645 108.073C457.715 108.973 458.121 109.856 458.862 110.491C460.326 111.762 462.548 111.586 463.818 110.121C464.894 108.867 464.93 107.085 464.012 105.796L481.74 85.1786C483.151 85.9024 484.897 85.5846 485.991 84.349C487.261 82.8663 487.102 80.6421 485.62 79.3889C484.756 78.6298 483.627 78.4004 482.586 78.6298L473.643 53.0524C474.067 52.8405 474.437 52.5581 474.772 52.1874C476.042 50.7047 475.884 48.4982 474.402 47.2273C472.938 45.9563 470.715 46.1152 469.445 47.598C469.022 48.0922 468.775 48.6571 468.669 49.2572L442.087 44.2265C442.316 43.0261 441.928 41.7552 440.941 40.9079C440.006 40.1136 438.789 39.8841 437.677 40.1842L428.77 14.7126C429.211 14.5008 429.616 14.2184 429.952 13.83C431.222 12.3473 431.045 10.1408 429.581 8.8699C428.117 7.59897 425.895 7.77548 424.625 9.24059C424.289 9.66422 424.078 10.1055 423.937 10.5645ZM418.01 72.5753C418.433 72.3634 418.804 72.081 419.121 71.7103C420.197 70.457 420.232 68.6742 419.315 67.3856L437.078 46.7154C438.489 47.4214 440.253 47.1214 441.311 45.8681C441.523 45.621 441.699 45.3385 441.823 45.0384L468.599 50.1045C468.652 51.0224 469.057 51.905 469.816 52.5581C470.68 53.2995 471.809 53.5466 472.85 53.3172L481.793 78.8946C481.369 79.1064 480.999 79.3889 480.681 79.7596C479.411 81.2246 479.588 83.4488 481.052 84.7197L463.466 105.16C461.984 103.89 459.779 104.066 458.509 105.531C458.086 106.025 457.839 106.608 457.733 107.226L431.151 102.195C431.38 100.995 430.992 99.7237 430.004 98.8588C429.122 98.0998 427.994 97.8703 426.935 98.0998L418.01 72.5753ZM324.382 84.7374L306.408 105.637C304.944 104.666 302.968 104.896 301.804 106.255C301.486 106.608 301.275 107.014 301.134 107.438L274.499 102.407C274.552 101.365 274.146 100.306 273.299 99.5825C272.453 98.8412 271.359 98.6117 270.318 98.8058L261.058 72.3281C261.411 72.134 261.746 71.8868 262.028 71.5515C262.998 70.4217 263.121 68.8507 262.451 67.5975L280.355 46.786C281.678 47.2626 283.212 46.8919 284.2 45.7622C284.377 45.568 284.518 45.3562 284.624 45.1267L311.911 50.2987C311.999 51.1636 312.405 51.9933 313.111 52.6111C313.94 53.3171 314.998 53.5643 316.003 53.3878L324.964 79.0005C324.611 79.1947 324.276 79.4418 323.994 79.7772C322.741 81.2423 322.918 83.4664 324.382 84.7374ZM448.208 259.278L430.551 279.825C429.087 278.837 427.112 279.084 425.947 280.443C425.612 280.831 425.383 281.273 425.242 281.749L398.642 276.718C398.73 275.642 398.325 274.53 397.443 273.753C396.561 272.994 395.397 272.764 394.338 273.012L384.337 244.416L404.163 221.362C405.627 222.333 407.603 222.104 408.767 220.745C409.067 220.392 409.296 219.986 409.437 219.579L436.072 224.61C436.019 225.652 436.425 226.693 437.272 227.417C438.118 228.141 439.212 228.388 440.235 228.194L449.196 253.806C448.808 254.001 448.437 254.283 448.137 254.636C446.973 255.995 447.044 257.99 448.208 259.278ZM391.357 185.9C391.234 187.012 391.64 188.177 392.557 188.971C393.368 189.66 394.374 189.924 395.344 189.783L404.322 215.431C403.987 215.626 403.687 215.855 403.44 216.155C402.364 217.408 402.346 219.191 403.246 220.48L383.384 243.586L353.469 237.92C353.486 236.914 353.098 235.89 352.269 235.184C351.44 234.478 350.382 234.23 349.394 234.389L340.433 208.759C340.804 208.565 341.121 208.318 341.421 207.982C342.585 206.623 342.515 204.628 341.333 203.322L359.113 182.652C360.577 183.623 362.553 183.393 363.717 182.034C364.034 181.663 364.264 181.24 364.405 180.798L391.357 185.9ZM447.026 166.571C446.956 167.648 447.361 168.725 448.226 169.466C449.09 170.225 450.219 170.455 451.259 170.225L460.202 195.803C459.779 196.014 459.391 196.297 459.074 196.667C457.909 198.027 457.98 200.021 459.162 201.328L441.523 221.839C440.059 220.868 438.083 221.098 436.901 222.457C436.584 222.845 436.354 223.269 436.213 223.728L409.596 218.697C409.667 217.638 409.261 216.543 408.397 215.802C407.532 215.043 406.403 214.814 405.345 215.043L396.402 189.483C396.808 189.289 397.196 188.989 397.496 188.618C398.66 187.259 398.607 185.264 397.408 183.958L415.082 163.394C416.528 164.365 418.521 164.135 419.686 162.776C420.003 162.405 420.232 161.982 420.374 161.54L447.026 166.571ZM503.118 146.995C502.977 148.125 503.383 149.308 504.318 150.102C505.129 150.808 506.17 151.038 507.14 150.896L516.118 176.544C515.765 176.739 515.448 176.986 515.183 177.303C514.107 178.557 514.072 180.34 514.989 181.628L497.227 202.298C495.816 201.592 494.069 201.892 492.993 203.128C492.729 203.446 492.535 203.781 492.394 204.152L465.265 199.015C465.282 198.009 464.894 197.003 464.065 196.279C463.236 195.573 462.178 195.326 461.19 195.485L452.23 169.854C452.582 169.66 452.935 169.395 453.217 169.078C454.399 167.719 454.329 165.724 453.129 164.418L470.909 143.747C472.373 144.718 474.349 144.489 475.513 143.13C475.831 142.759 476.06 142.335 476.201 141.876L503.118 146.995ZM571.946 156.792C571.646 156.986 571.364 157.198 571.117 157.48C569.953 158.84 570.023 160.834 571.205 162.141L553.248 183.023C551.784 182.052 549.809 182.264 548.627 183.64C548.327 183.993 548.098 184.399 547.957 184.823L521.322 179.792C521.375 178.751 520.969 177.692 520.122 176.968C519.276 176.227 518.164 175.997 517.141 176.191L508.181 150.596C508.586 150.402 508.939 150.12 509.257 149.767C510.421 148.407 510.35 146.413 509.168 145.107L527.125 124.224C528.589 125.195 530.565 124.966 531.729 123.607C531.976 123.324 532.152 123.006 532.276 122.689L558.716 127.702C558.628 128.796 559.034 129.908 559.916 130.667C560.798 131.426 561.962 131.674 563.02 131.409L571.946 156.792ZM510.386 237.814C510.456 236.755 510.05 235.66 509.186 234.919C508.322 234.16 507.175 233.93 506.152 234.16L497.209 208.6C497.615 208.406 497.985 208.106 498.303 207.753C499.467 206.394 499.396 204.399 498.215 203.093L515.889 182.546C517.335 183.517 519.328 183.287 520.493 181.928C520.81 181.558 521.039 181.134 521.181 180.693L547.78 185.723C547.71 186.782 548.115 187.877 548.997 188.618C549.862 189.377 550.991 189.607 552.031 189.377L560.974 214.955C560.551 215.167 560.163 215.449 559.845 215.82C558.664 217.179 558.752 219.174 559.916 220.48L542.277 240.991C540.813 240.02 538.837 240.25 537.673 241.609C537.338 241.997 537.109 242.421 536.985 242.862L510.386 237.814ZM454.293 257.372C454.434 256.242 454.029 255.06 453.094 254.265C452.283 253.559 451.242 253.312 450.254 253.471L441.276 227.805C441.629 227.611 441.946 227.364 442.228 227.046C443.304 225.793 443.34 224.01 442.422 222.722L460.15 202.104C461.561 202.81 463.307 202.51 464.383 201.257C464.665 200.939 464.842 200.586 465 200.215L492.111 205.352C492.094 206.376 492.482 207.4 493.311 208.106C494.14 208.83 495.216 209.059 496.221 208.883L505.182 234.495C504.829 234.689 504.476 234.954 504.194 235.272C503.03 236.631 503.101 238.626 504.282 239.932L486.502 260.62C485.038 259.508 482.939 259.702 481.722 261.114C481.387 261.52 481.158 261.961 481.017 262.438L454.293 257.372ZM363.629 363.742C364.14 363.548 364.617 363.23 365.005 362.789C366.169 361.429 366.116 359.435 364.934 358.129L382.661 337.511C384.072 338.235 385.819 337.935 386.912 336.682C387.124 336.434 387.265 336.187 387.406 335.923L414.217 340.989C414.288 341.871 414.694 342.736 415.417 343.354C416.264 344.078 417.34 344.325 418.363 344.131L427.553 370.414C427.006 370.608 426.494 370.926 426.089 371.403C424.924 372.762 424.995 374.757 426.159 376.063L408.979 396.062C407.515 395.091 405.539 395.321 404.375 396.68C403.987 397.121 403.758 397.633 403.634 398.163L377.281 393.167C377.317 392.126 376.929 391.085 376.082 390.361C375.129 389.531 373.842 389.319 372.713 389.69L363.629 363.742ZM374.512 305.403C374.935 305.208 375.306 304.908 375.623 304.538C376.699 303.284 376.735 301.502 375.817 300.213L393.58 279.543C394.991 280.266 396.737 279.949 397.831 278.713C398.06 278.448 398.201 278.184 398.342 277.883L425.118 282.95C425.171 283.867 425.577 284.75 426.336 285.403C427.2 286.145 428.329 286.392 429.369 286.162L438.312 311.74C437.889 311.934 437.519 312.234 437.201 312.605C435.931 314.07 436.108 316.294 437.572 317.565L419.985 338.005C418.504 336.735 416.299 336.911 415.029 338.376C414.606 338.87 414.359 339.453 414.253 340.071L387.671 335.04C387.9 333.84 387.512 332.569 386.524 331.704C385.642 330.962 384.513 330.715 383.473 330.945L374.512 305.403ZM342.638 296.277C342.868 295.076 342.48 293.788 341.492 292.94C340.61 292.181 339.481 291.952 338.44 292.181L329.515 266.692C329.868 266.498 330.185 266.251 330.467 265.933C331.543 264.68 331.579 262.897 330.661 261.608L348.389 240.991C349.8 241.697 351.546 241.397 352.64 240.162C352.904 239.844 353.098 239.491 353.239 239.12L383.42 244.839L393.403 273.382C393.068 273.576 392.751 273.824 392.469 274.124C391.304 275.483 391.375 277.477 392.557 278.784L374.882 299.33C373.418 298.36 371.443 298.589 370.261 299.948C369.891 300.372 369.661 300.866 369.52 301.378L342.638 296.277ZM273.67 286.445C274.005 286.25 274.322 286.003 274.605 285.703C275.786 284.344 275.716 282.349 274.516 281.043L292.402 260.249C293.866 261.22 295.842 260.991 297.006 259.631C297.306 259.278 297.535 258.872 297.676 258.449L324.311 263.497C324.276 264.539 324.664 265.58 325.528 266.304C326.375 267.028 327.469 267.275 328.492 267.081L337.417 292.623C337.1 292.817 336.8 293.046 336.553 293.329C335.389 294.688 335.459 296.683 336.641 297.989L318.596 318.959C317.132 317.988 315.157 318.218 313.992 319.577C313.71 319.895 313.534 320.248 313.393 320.601L287.04 315.605C287.181 314.458 286.793 313.275 285.858 312.463C284.923 311.651 283.671 311.44 282.577 311.757L273.67 286.445ZM284.641 228.352C285.047 228.141 285.435 227.858 285.735 227.488C286.917 226.128 286.846 224.134 285.664 222.845L303.339 202.298C304.803 203.269 306.778 203.04 307.942 201.681C308.26 201.31 308.489 200.886 308.63 200.445L335.248 205.476C335.177 206.535 335.583 207.629 336.447 208.371C337.311 209.13 338.44 209.359 339.499 209.13L348.442 234.707C348.018 234.919 347.63 235.201 347.313 235.572C346.148 236.931 346.219 238.926 347.401 240.232L329.762 260.744C328.298 259.773 326.322 260.002 325.14 261.361C324.823 261.732 324.594 262.173 324.452 262.615L297.835 257.584C297.906 256.525 297.5 255.448 296.636 254.689C295.771 253.93 294.625 253.7 293.584 253.93L284.641 228.352ZM258.5 163.323C259.911 164.029 261.675 163.729 262.733 162.494C262.98 162.211 263.139 161.911 263.263 161.611L290.021 166.677C290.074 167.613 290.462 168.513 291.238 169.184C292.12 169.943 293.267 170.172 294.307 169.943L303.55 196.35C303.215 196.544 302.88 196.791 302.615 197.109C301.539 198.362 301.504 200.145 302.421 201.433L284.659 222.104C283.248 221.38 281.484 221.68 280.408 222.933C280.143 223.251 279.949 223.586 279.808 223.957L252.891 218.856C252.997 217.761 252.591 216.632 251.691 215.855C250.792 215.078 249.61 214.849 248.534 215.114L239.609 189.607C240.032 189.395 240.42 189.112 240.738 188.742C241.902 187.383 241.849 185.388 240.649 184.082L258.5 163.323ZM250.368 131.197C250.774 130.985 251.145 130.703 251.462 130.35C252.644 128.99 252.573 126.996 251.392 125.69L269.066 105.125C270.53 106.096 272.505 105.867 273.67 104.507C273.987 104.137 274.216 103.713 274.358 103.254L300.975 108.285C300.904 109.344 301.31 110.438 302.174 111.18C303.056 111.921 304.168 112.168 305.226 111.939L314.169 137.516C313.746 137.728 313.357 138.011 313.04 138.381C311.876 139.74 311.946 141.735 313.111 143.041L295.471 163.553C294.007 162.582 292.032 162.811 290.85 164.17C290.515 164.541 290.303 164.982 290.162 165.424L263.545 160.393C263.615 159.334 263.21 158.239 262.345 157.498C261.463 156.739 260.335 156.51 259.294 156.739L250.368 131.197ZM218.424 121.647C218.442 120.641 218.054 119.635 217.225 118.911C216.396 118.205 215.337 117.958 214.35 118.135L205.389 92.5042C205.742 92.31 206.077 92.0452 206.377 91.7275C207.541 90.3683 207.47 88.3736 206.289 87.0851L224.333 66.097C225.744 66.8208 227.508 66.503 228.584 65.2674C228.796 65.0203 228.937 64.7732 229.078 64.5084L255.89 69.5921C255.96 70.4747 256.366 71.3396 257.107 71.9575C257.953 72.6812 259.029 72.9283 260.052 72.7341L269.313 99.2295C268.96 99.4237 268.643 99.6708 268.378 99.9885C267.302 101.242 267.267 103.025 268.184 104.313L250.421 124.983C249.01 124.277 247.246 124.577 246.17 125.831C245.906 126.131 245.712 126.484 245.571 126.837L218.424 121.647ZM117.846 281.025L135.538 260.443C137.002 261.414 138.978 261.185 140.142 259.826C140.46 259.455 140.689 259.031 140.83 258.59L167.447 263.638C167.394 264.698 167.783 265.774 168.647 266.516C169.511 267.257 170.64 267.504 171.663 267.275L180.8 293.417C180.553 293.594 180.306 293.788 180.095 294.035C179.072 295.218 179.001 296.877 179.777 298.148L161.926 318.924C160.551 318.341 158.928 318.677 157.905 319.859C157.64 320.177 157.428 320.53 157.305 320.901L126.86 315.129L116.859 286.515C117.247 286.321 117.617 286.039 117.935 285.668C119.099 284.309 119.028 282.314 117.846 281.025ZM236.681 273.594C236.24 273.806 235.834 274.088 235.499 274.477C234.335 275.836 234.405 277.83 235.587 279.137L218.019 299.56C216.59 298.73 214.72 299.013 213.591 300.301C213.274 300.672 213.044 301.078 212.921 301.502L186.304 296.471C186.356 295.429 185.968 294.353 185.104 293.611C184.169 292.817 182.952 292.587 181.858 292.887L172.739 266.816C173.074 266.622 173.392 266.392 173.639 266.092C174.715 264.839 174.75 263.056 173.833 261.767L191.56 241.15C192.971 241.856 194.735 241.556 195.793 240.303C196.076 239.967 196.287 239.597 196.428 239.191L223.592 244.327C223.469 245.457 223.875 246.622 224.792 247.416C225.656 248.158 226.75 248.387 227.773 248.193L236.681 273.594ZM225.727 331.757C225.392 331.951 225.092 332.18 224.827 332.48C223.698 333.787 223.716 335.675 224.739 336.964L207.082 357.528C205.654 356.699 203.784 356.964 202.655 358.27C202.32 358.658 202.09 359.099 201.949 359.558L175.35 354.528C175.42 353.451 175.032 352.356 174.15 351.597C173.215 350.785 171.963 350.574 170.852 350.909L161.926 325.384C162.42 325.173 162.897 324.873 163.267 324.431C164.484 323.001 164.361 320.883 163.02 319.612L180.659 299.101C182.123 300.231 184.24 300.036 185.457 298.624C185.774 298.254 186.004 297.848 186.127 297.406L212.744 302.437C212.692 303.496 213.08 304.555 213.944 305.297C214.738 305.985 215.761 306.232 216.731 306.109L225.727 331.757ZM246.841 399.54C246.823 400.564 247.211 401.57 248.04 402.293C248.869 403.017 249.945 403.247 250.951 403.07L259.911 428.683C259.541 428.877 259.206 429.142 258.923 429.477C257.759 430.836 257.83 432.831 259.012 434.12L239.115 457.261L208.952 451.56C209.076 450.448 208.67 449.3 207.753 448.506C206.959 447.817 205.953 447.57 204.983 447.694L196.005 422.01C196.322 421.834 196.622 421.587 196.887 421.287C197.963 420.033 197.998 418.251 197.081 416.962L215.055 396.045C216.502 397.033 218.495 396.804 219.659 395.427C219.906 395.127 220.082 394.809 220.223 394.474L246.841 399.54ZM315.686 409.107C315.263 409.319 314.892 409.601 314.557 409.972C313.393 411.331 313.463 413.326 314.645 414.632L297.006 435.143C295.542 434.173 293.566 434.402 292.385 435.761C292.067 436.132 291.838 436.573 291.697 437.015L265.079 431.984C265.15 430.907 264.744 429.83 263.88 429.089C263.016 428.348 261.887 428.1 260.846 428.33L251.903 402.77C252.309 402.576 252.697 402.276 252.997 401.923C254.161 400.564 254.09 398.569 252.909 397.263L270.583 376.716C272.047 377.687 274.022 377.457 275.187 376.098C275.504 375.727 275.733 375.304 275.875 374.862L302.474 379.893C302.404 380.952 302.809 382.047 303.674 382.788C304.538 383.53 305.685 383.777 306.725 383.547L315.686 409.107ZM304.908 467.393C304.591 467.587 304.309 467.799 304.044 468.099C302.88 469.458 302.95 471.453 304.132 472.742L286.193 493.606C284.747 492.635 282.754 492.865 281.59 494.224C281.29 494.595 281.06 494.983 280.919 495.407L254.284 490.358C254.337 489.317 253.932 488.258 253.085 487.534C252.238 486.793 251.145 486.563 250.104 486.757L240.067 458.073L259.999 434.879C261.411 435.585 263.174 435.302 264.25 434.049C264.48 433.784 264.656 433.484 264.797 433.166L291.556 438.232C291.591 439.168 292.014 440.068 292.773 440.721C293.655 441.48 294.801 441.71 295.842 441.48L304.908 467.393ZM230.154 519.184C230.56 518.99 230.93 518.689 231.248 518.319C232.43 516.96 232.359 514.965 231.177 513.659L248.852 493.112C250.316 494.083 252.291 493.853 253.455 492.494C253.773 492.123 254.002 491.682 254.143 491.241L280.743 496.272C280.672 497.348 281.078 498.425 281.942 499.167C282.824 499.926 283.936 500.155 284.994 499.926L293.937 525.503C293.514 525.715 293.126 525.997 292.808 526.368C291.644 527.727 291.714 529.722 292.896 531.028L275.257 551.539C273.793 550.569 271.818 550.798 270.653 552.157C270.318 552.528 270.107 552.969 269.965 553.411L243.348 548.38C243.419 547.321 243.013 546.226 242.149 545.485C241.284 544.743 240.155 544.496 239.097 544.726L230.154 519.184ZM184.998 480.014C185.351 479.82 185.686 479.573 185.951 479.255C187.027 478.002 187.062 476.219 186.145 474.931L203.872 454.313C205.283 455.037 207.047 454.737 208.123 453.484C208.405 453.166 208.599 452.813 208.723 452.442L238.903 458.161L249.063 487.181C248.71 487.375 248.393 487.622 248.128 487.94C247.052 489.193 247.017 490.976 247.934 492.265L230.172 512.935C228.761 512.229 226.997 512.529 225.921 513.765C225.656 514.065 225.462 514.418 225.339 514.788L198.668 509.74C198.668 508.734 198.28 507.763 197.469 507.057C196.534 506.263 195.317 506.033 194.223 506.333L184.998 480.014ZM140.125 441.675C140.53 441.463 140.901 441.18 141.218 440.81C142.382 439.45 142.329 437.456 141.13 436.15L158.804 415.603C160.268 416.574 162.244 416.344 163.408 414.985C163.726 414.614 163.955 414.191 164.096 413.732L190.713 418.763C190.643 419.822 191.048 420.916 191.913 421.657C192.795 422.399 193.906 422.646 194.964 422.416L203.907 447.994C203.484 448.206 203.096 448.488 202.778 448.859C201.614 450.218 201.685 452.213 202.867 453.519L185.228 474.03C183.764 473.06 181.788 473.289 180.606 474.648C180.289 475.019 180.059 475.46 179.918 475.901L153.301 470.871C153.371 469.812 152.966 468.717 152.101 467.976C151.237 467.217 150.091 466.987 149.05 467.217L140.125 441.675ZM151.149 383.706C151.484 383.512 151.802 383.265 152.084 382.965C153.248 381.605 153.177 379.611 152.013 378.322L170.076 357.299C171.522 358.146 173.392 357.881 174.521 356.575C174.75 356.31 174.909 356.01 175.05 355.71L201.826 360.776C201.879 361.694 202.284 362.594 203.043 363.248C203.854 363.936 204.877 364.183 205.848 364.042L215.02 390.272C214.773 390.449 214.544 390.626 214.35 390.855C213.274 392.108 213.238 393.891 214.156 395.18L196.164 416.097C194.717 415.126 192.724 415.356 191.56 416.715C191.242 417.068 191.031 417.474 190.89 417.898L164.255 412.849C164.308 411.808 163.902 410.749 163.055 410.025C162.209 409.284 161.097 409.054 160.074 409.248L151.149 383.706ZM118.922 374.033C119.046 372.921 118.64 371.773 117.723 370.979C116.929 370.291 115.924 370.044 114.954 370.167L105.975 344.484C106.293 344.29 106.593 344.06 106.857 343.76C107.933 342.507 107.969 340.724 107.051 339.435L126.913 316.329L157.093 322.031C157.076 323.037 157.481 324.061 158.31 324.767C159.069 325.42 160.021 325.685 160.956 325.596L169.952 351.315C169.688 351.491 169.423 351.686 169.194 351.95C168.082 353.257 168.082 355.145 169.123 356.434L150.99 377.528C149.579 376.822 147.815 377.104 146.739 378.375C146.527 378.622 146.351 378.905 146.228 379.205L118.922 374.033ZM50.0949 364.148C50.5006 363.936 50.871 363.654 51.1885 363.283C52.3527 361.924 52.2998 359.929 51.1179 358.623L68.7923 338.076C70.2387 339.047 72.2319 338.817 73.396 337.458C73.7136 337.088 73.9429 336.664 74.084 336.223L100.684 341.253C100.613 342.313 101.019 343.407 101.883 344.148C102.747 344.89 103.894 345.137 104.935 344.907L113.878 370.485C113.454 370.697 113.066 370.979 112.749 371.35C111.585 372.709 111.655 374.704 112.837 376.01L95.1979 396.521C93.7339 395.55 91.7583 395.762 90.5765 397.139C90.2413 397.51 90.0297 397.951 89.8885 398.41L63.2712 393.379C63.3418 392.32 62.9361 391.226 62.0718 390.484C61.2075 389.743 60.0786 389.496 59.0379 389.725L50.0949 364.148ZM5.08006 325.384C5.48576 325.173 5.85618 324.89 6.17368 324.52C7.33786 323.16 7.2673 321.166 6.10312 319.859L23.9009 299.154C25.365 300.125 27.3405 299.895 28.5047 298.536C28.7869 298.201 28.981 297.848 29.1221 297.459L55.8099 302.508C55.7923 303.514 56.198 304.52 57.0094 305.226C57.8384 305.932 58.8791 306.179 59.8669 306.02L68.9863 332.11C68.6335 332.304 68.316 332.551 68.0338 332.869C66.9578 334.122 66.9402 335.905 67.8398 337.194L50.0772 357.864C48.6661 357.158 46.9022 357.44 45.8262 358.711C45.5616 359.011 45.3676 359.364 45.2265 359.735L18.2388 354.634C18.3093 353.574 17.9036 352.48 17.0393 351.739C16.175 350.997 15.0285 350.75 13.9878 350.98L5.08006 325.384ZM79.8519 273.682C79.4639 273.876 79.1111 274.141 78.8112 274.494C77.6471 275.853 77.7176 277.848 78.8994 279.154L61.2604 299.666C59.7964 298.695 57.8208 298.907 56.639 300.284C56.2862 300.69 56.0569 301.166 55.9334 301.643L29.3337 296.612C29.4396 295.518 29.0339 294.388 28.1343 293.611C27.2347 292.835 26.0705 292.605 24.9945 292.87L16.0692 267.328C16.5102 267.116 16.9159 266.833 17.2686 266.427C18.4328 265.068 18.3623 263.074 17.1804 261.767L34.8548 241.203C36.3188 242.174 38.2944 241.944 39.4585 240.585C39.7584 240.232 39.9701 239.844 40.1112 239.438L66.7461 244.486C66.7109 245.51 67.1166 246.551 67.9456 247.275C68.7923 247.999 69.8682 248.228 70.8913 248.052L79.8519 273.682ZM111.761 283.25C111.726 284.291 112.131 285.315 112.96 286.039C113.807 286.762 114.883 287.009 115.906 286.815L125.943 315.517L106.134 338.57C104.688 337.599 102.694 337.811 101.513 339.188C101.213 339.541 100.983 339.947 100.842 340.371L74.2251 335.34C74.278 334.299 73.8723 333.24 73.0256 332.516C72.179 331.774 71.0677 331.545 70.0446 331.739L60.9253 305.685C61.3133 305.491 61.6661 305.226 61.966 304.873C63.0419 303.62 63.0772 301.837 62.16 300.548L79.8872 279.913C81.2983 280.619 83.0446 280.337 84.1382 279.084C84.3852 278.801 84.5616 278.466 84.7027 278.131L111.761 283.25ZM127.865 228.494C128.253 228.299 128.606 228.017 128.906 227.664C130.07 226.305 130 224.31 128.818 223.004L146.492 202.44C147.956 203.41 149.932 203.181 151.096 201.822C151.431 201.433 151.66 200.992 151.802 200.516L178.401 205.546C178.313 206.623 178.719 207.735 179.601 208.512C180.483 209.271 181.647 209.5 182.705 209.253L191.648 234.813C191.207 235.025 190.801 235.307 190.466 235.696C189.302 237.055 189.373 239.049 190.555 240.356L172.915 260.867C171.451 259.896 169.476 260.108 168.312 261.485C167.994 261.838 167.783 262.262 167.641 262.685L141.006 257.637C141.059 256.595 140.654 255.536 139.807 254.813C138.943 254.071 137.849 253.842 136.826 254.036L127.865 228.494ZM138.625 170.154C138.96 169.96 139.278 169.713 139.542 169.413C140.724 168.054 140.654 166.059 139.472 164.771L157.34 143.977C158.787 144.948 160.78 144.718 161.944 143.359C162.262 143.006 162.473 142.6 162.614 142.176L189.249 147.225C189.214 148.266 189.602 149.308 190.449 150.031C191.295 150.755 192.389 151.002 193.412 150.808L203.449 179.51L183.464 202.757C182.053 202.051 180.289 202.334 179.213 203.587C179.001 203.834 178.825 204.117 178.701 204.417L151.925 199.351C151.872 198.433 151.466 197.55 150.708 196.897C149.844 196.156 148.715 195.908 147.692 196.138L138.625 170.154ZM200.203 89.1856C200.133 90.2447 200.538 91.3391 201.403 92.0805C202.284 92.8219 203.413 93.069 204.454 92.8395L213.397 118.417C212.974 118.611 212.586 118.911 212.268 119.282C211.086 120.641 211.157 122.653 212.356 123.942L194.717 144.453C193.253 143.483 191.278 143.694 190.096 145.071C189.761 145.46 189.549 145.883 189.408 146.325L162.791 141.294C162.861 140.235 162.456 139.14 161.591 138.399C160.727 137.657 159.598 137.41 158.557 137.64L149.614 112.08C150.02 111.886 150.39 111.586 150.708 111.233C151.872 109.874 151.819 107.879 150.637 106.573L168.312 86.0083C169.758 86.9791 171.751 86.7497 172.915 85.3905C173.233 85.0198 173.462 84.5961 173.603 84.1549L200.203 89.1856ZM266.79 11.5C266.843 12.4179 267.249 13.3005 268.008 13.9536C268.872 14.695 270.001 14.9421 271.041 14.7126L279.984 40.2901C279.579 40.4843 279.191 40.7844 278.873 41.1551C277.603 42.6202 277.78 44.8443 279.244 46.1152L261.657 66.5736C260.176 65.3027 257.953 65.4792 256.683 66.9444C256.26 67.4386 256.013 68.0211 255.907 68.6389L229.325 63.6081C229.554 62.4078 229.166 61.1369 228.179 60.272C227.297 59.5129 226.168 59.2834 225.127 59.5129L216.184 33.9531C216.607 33.7589 216.978 33.4589 217.295 33.0882C218.371 31.8349 218.407 30.0521 217.489 28.7635L235.252 8.09322C236.663 8.79929 238.427 8.4992 239.485 7.26357C239.715 6.9988 239.873 6.71638 239.997 6.43394L266.79 11.5ZM346.783 -37.2366C346.29 -37.0248 345.831 -36.7247 345.461 -36.2834C344.191 -34.8183 344.367 -32.5942 345.831 -31.3233L328.245 -10.8825C326.763 -12.1534 324.541 -11.9769 323.288 -10.5118C322.918 -10.0705 322.689 -9.57624 322.547 -9.04669L295.965 -14.0775C296.107 -15.2072 295.701 -16.3898 294.766 -17.1842C293.955 -17.8902 292.914 -18.1374 291.944 -17.9785L282.965 -43.6266C283.301 -43.8207 283.618 -44.0679 283.883 -44.368C284.959 -45.6212 284.994 -47.4041 284.077 -48.6926L301.839 -69.3629C303.25 -68.6568 305.014 -68.9569 306.073 -70.2102C306.355 -70.5279 306.549 -70.881 306.69 -71.2517L333.378 -66.2032C333.378 -65.2147 333.783 -64.2086 334.595 -63.5202C335.53 -62.7258 336.747 -62.4964 337.84 -62.8141L346.783 -37.2366ZM335.883 21.0673C335.547 21.2615 335.212 21.4909 334.948 21.8087C333.783 23.1679 333.854 25.1625 335.036 26.4687L317.362 47.0154C315.897 46.0446 313.922 46.2741 312.758 47.6333C312.387 48.0569 312.158 48.5512 312.035 49.0631L285.029 43.944C285.188 42.7967 284.8 41.5963 283.847 40.7667C283.018 40.0606 281.96 39.8135 280.955 39.99L271.994 14.3596C272.364 14.1654 272.699 13.9007 272.982 13.5653C274.058 12.312 274.093 10.5292 273.176 9.24059L290.921 -11.3944C292.332 -10.6883 294.096 -10.9884 295.154 -12.224C295.419 -12.5241 295.595 -12.8595 295.736 -13.2125L322.459 -8.1641C322.477 -7.19325 322.883 -6.24005 323.676 -5.56928C324.576 -4.7926 325.775 -4.56313 326.851 -4.82791L335.883 21.0673ZM367.58 30.6346C367.633 31.5525 368.039 32.4351 368.797 33.0882C369.661 33.8295 370.79 34.0767 371.831 33.8472L380.774 59.4247C380.368 59.6188 379.98 59.9189 379.663 60.2896C378.393 61.7547 378.569 63.9788 380.033 65.2498L362.447 85.6906C360.965 84.4196 358.76 84.5961 357.49 86.0612C357.067 86.5555 356.802 87.138 356.697 87.7558L330.115 82.7251C330.344 81.5247 329.956 80.2361 328.968 79.3889C328.086 78.6475 326.957 78.4004 325.899 78.6298L316.956 53.07C317.362 52.8759 317.75 52.5758 318.067 52.2051C319.143 50.9518 319.178 49.169 318.261 47.8804L336.024 27.2278C337.435 27.9338 339.199 27.6338 340.275 26.3981C340.504 26.1334 340.663 25.8509 340.786 25.5685L367.58 30.6346ZM423.813 11.4118C423.778 12.4532 424.166 13.4947 425.013 14.236C425.859 14.9598 426.953 15.2069 427.976 15.0127L436.919 40.5725C436.584 40.7667 436.249 40.9962 435.984 41.3139C434.82 42.6731 434.89 44.6678 436.055 45.974L418.398 66.5031C416.934 65.5322 414.958 65.744 413.777 67.1209C413.406 67.5621 413.177 68.0388 413.053 68.5683L385.73 63.3963C386.013 62.1607 385.642 60.8192 384.619 59.9189C383.825 59.2305 382.802 58.9834 381.832 59.1246L372.854 33.4412C373.189 33.247 373.489 33.0176 373.754 32.7175C374.724 31.5878 374.847 30.0168 374.177 28.7635L391.781 8.28738C393.245 9.25823 395.22 9.02876 396.384 7.66957C396.72 7.28123 396.949 6.82229 397.09 6.34569L423.813 11.4118Z" fill="#43A5D8"/>
<path d="M584.593 164.647L572.14 140.464C572.986 139.864 573.551 138.911 573.604 137.799C573.692 135.857 572.21 134.198 570.252 134.109C568.471 134.021 566.936 135.31 566.636 137.04L539.878 135.769C539.896 135.628 539.931 135.486 539.949 135.345C540.037 133.403 538.537 131.744 536.597 131.656C535.962 131.621 535.345 131.779 534.816 132.062L522.433 108.002C523.509 107.438 524.267 106.361 524.338 105.055C524.391 103.837 523.826 102.725 522.909 102.054L537.708 79.0182C538.096 79.1947 538.502 79.3006 538.943 79.3183C540.601 79.3889 542.012 78.3298 542.471 76.8117L569.635 78.118C569.935 79.6713 571.258 80.8717 572.898 80.9423C574.839 81.0482 576.479 79.5478 576.585 77.606C576.638 76.5469 576.197 75.5761 575.474 74.8877L590.167 52.0286C590.537 52.1875 590.908 52.2757 591.331 52.2934C593.271 52.3816 594.929 50.8812 595.018 48.9395C595.106 46.9978 593.607 45.3386 591.666 45.2503C591.102 45.215 590.573 45.3386 590.079 45.5504L577.696 21.491C578.666 20.9084 579.336 19.867 579.389 18.649C579.478 16.7073 577.978 15.0657 576.056 14.9598C574.115 14.8715 572.475 16.3719 572.369 18.3136L545.381 17.0251C545.47 15.0834 543.988 13.4417 542.03 13.3358C540.09 13.2476 538.449 14.748 538.361 16.6897C538.308 17.9253 538.89 19.0197 539.807 19.7081L525.185 42.4613C524.726 42.1965 524.197 42.0377 523.632 42.0024C521.692 41.9141 520.052 43.4145 519.964 45.3562L493.011 44.0676C493.099 42.1259 491.6 40.4843 489.66 40.3784C489.007 40.3431 488.407 40.502 487.878 40.7844L475.496 16.725C476.572 16.1601 477.348 15.0834 477.401 13.7771C477.489 11.8354 475.989 10.1938 474.049 10.0879C472.109 9.99963 470.468 11.5 470.38 13.4417L443.41 12.1531C443.498 10.2114 441.999 8.55218 440.059 8.46392C438.118 8.37566 436.478 9.87607 436.372 11.8178C436.319 12.9651 436.831 14.0066 437.642 14.6774L423.019 37.4658C422.614 37.2717 422.155 37.1481 421.679 37.1305C419.738 37.0422 418.098 38.5426 417.992 40.4843L390.475 39.1604C390.352 37.4129 388.958 35.9831 387.159 35.8948C386.665 35.8772 386.207 35.9478 385.766 36.1067L373.365 12.0119C374.247 11.4118 374.847 10.4233 374.9 9.29356C374.988 7.35186 373.489 5.71024 371.549 5.60433C369.749 5.51607 368.215 6.80465 367.933 8.53453L340.857 7.24595C340.733 5.49842 339.322 4.06863 337.541 3.98037C335.6 3.89211 333.96 5.39251 333.854 7.33421C333.801 8.48157 334.313 9.52303 335.142 10.2115L320.501 32.9823C320.078 32.7881 319.619 32.6646 319.143 32.6293C317.344 32.541 315.827 33.8296 315.527 35.5595L288.151 34.2532C288.028 32.5057 286.634 31.0759 284.835 30.9876C282.895 30.8994 281.254 32.3998 281.149 34.3415C281.096 35.5771 281.66 36.6715 282.595 37.3423L267.778 60.4308C267.355 60.219 266.896 60.0955 266.402 60.0778C264.603 59.9895 263.086 61.2781 262.786 63.008L235.71 61.7194C235.587 59.9719 234.193 58.5421 232.394 58.4538C230.454 58.3656 228.814 59.866 228.725 61.8077C228.672 62.9904 229.202 64.0495 230.048 64.7202L215.426 87.4911C215.002 87.2793 214.508 87.138 213.997 87.1204C212.198 87.0321 210.681 88.3207 210.381 90.0506L183.27 88.762C183.146 87.0145 181.753 85.5847 179.953 85.4964C179.424 85.4788 178.93 85.567 178.472 85.7612L165.913 61.3664C166.936 60.7839 167.641 59.7248 167.712 58.4715C167.765 57.2888 167.236 56.2297 166.371 55.5413L180.994 32.7528C181.435 32.9823 181.911 33.1235 182.441 33.1588C184.381 33.2471 186.021 31.7643 186.127 29.805C186.215 27.8633 184.716 26.2216 182.776 26.1157C182.247 26.0981 181.753 26.1863 181.294 26.3805L168.894 2.30344C169.829 1.72093 170.446 0.69713 170.517 -0.46789C170.605 -2.40959 169.123 -4.05121 167.165 -4.15712C165.366 -4.24538 163.849 -2.9568 163.549 -1.22692L136.473 -2.5155C136.35 -4.26303 134.939 -5.69283 133.157 -5.78109C131.217 -5.86935 129.576 -4.36894 129.471 -2.42724C129.418 -1.31518 129.911 -0.309024 130.688 0.379396L116.03 23.2032C115.642 23.0267 115.218 22.9208 114.76 22.9031C112.96 22.8148 111.443 24.1034 111.144 25.8333L83.8736 24.5271C83.7501 22.7795 82.339 21.3497 80.5575 21.2615C78.6172 21.1732 76.9767 22.6736 76.8709 24.6153C76.818 25.7627 77.3295 26.8042 78.1586 27.4926L63.5182 50.2811C63.0948 50.0869 62.6362 49.9457 62.16 49.928C60.2197 49.8398 58.5792 51.3402 58.491 53.2819C58.4028 55.2236 59.9022 56.8652 61.8424 56.9534C62.3363 56.9711 62.795 56.9005 63.2359 56.7416L75.7773 81.1011C74.7895 81.6836 74.1016 82.7251 74.0487 83.9607C73.9957 85.1081 74.5073 86.1495 75.3363 86.838L60.6959 109.609C60.2902 109.415 59.814 109.273 59.3377 109.256C57.3974 109.167 55.757 110.668 55.6511 112.61C55.5629 114.551 57.0623 116.193 59.0026 116.281C59.4965 116.316 59.9551 116.228 60.396 116.069L72.8139 140.164C71.9496 140.764 71.3499 141.735 71.297 142.882C71.2088 144.824 72.7081 146.466 74.6484 146.572C76.4476 146.66 77.9645 145.371 78.2644 143.659L105.287 144.948C105.411 146.695 106.804 148.125 108.604 148.196C109.045 148.213 109.45 148.143 109.856 148.019L122.556 172.679C121.48 173.244 120.704 174.32 120.651 175.627C120.598 176.845 121.163 177.957 122.08 178.627L107.51 201.328C107.087 201.116 106.593 200.975 106.081 200.939C104.282 200.851 102.765 202.14 102.465 203.869L75.4069 202.581C75.2834 200.833 73.8723 199.404 72.0907 199.315C70.1504 199.227 68.51 200.727 68.4042 202.669C68.3512 203.816 68.8628 204.858 69.6918 205.546L55.0691 228.317C54.6457 228.123 54.1871 227.999 53.7109 227.982C51.7706 227.894 50.1301 229.394 50.0243 231.336C49.9361 233.277 51.4354 234.919 53.3757 235.025C53.8696 235.043 54.3282 234.972 54.7692 234.795L67.1871 258.89C66.3228 259.49 65.723 260.461 65.6701 261.608C65.6172 262.826 66.1816 263.921 67.0812 264.592L52.0351 288.016C51.6647 287.874 51.2767 287.768 50.871 287.751C48.9307 287.663 47.2902 289.145 47.1844 291.105C47.0962 293.046 48.5779 294.688 50.5358 294.794C51.1003 294.812 51.6294 294.706 52.1233 294.476L64.5059 318.518C63.5182 319.1 62.8302 320.142 62.7773 321.378C62.7244 322.525 63.2359 323.566 64.065 324.255L49.3893 347.061C48.9836 346.867 48.525 346.743 48.0311 346.725C46.0908 346.637 44.4504 348.12 44.3445 350.079C44.2563 352.021 45.7556 353.663 47.6959 353.769C48.1898 353.786 48.6484 353.716 49.0894 353.557L61.5073 377.651C60.643 378.252 60.0433 379.223 59.9903 380.37C59.9021 382.312 61.4015 383.953 63.3418 384.059C65.1409 384.147 66.6579 382.859 66.9578 381.129L93.9631 382.417C94.0866 384.165 95.4977 385.595 97.2793 385.665C99.2196 385.754 100.86 384.271 100.966 382.312C101.019 381.164 100.507 380.14 99.6958 379.452L114.336 356.663C114.76 356.858 115.218 356.981 115.694 357.017C117.494 357.105 119.011 355.816 119.31 354.086L146.774 355.393C146.898 357.14 148.309 358.552 150.108 358.64C152.048 358.729 153.689 357.228 153.795 355.304C153.865 354.051 153.248 352.921 152.278 352.251L167.059 329.233C167.465 329.427 167.924 329.55 168.4 329.568C170.199 329.656 171.716 328.368 172.016 326.638L199.021 327.926C199.145 329.674 200.556 331.104 202.337 331.192C204.278 331.28 205.918 329.78 206.006 327.838C206.059 326.691 205.548 325.667 204.736 324.978L219.377 302.172C219.782 302.367 220.259 302.49 220.735 302.525C222.675 302.614 224.316 301.131 224.421 299.172C224.51 297.23 223.01 295.588 221.07 295.482C220.576 295.465 220.118 295.535 219.677 295.694L207.276 271.599C208.158 270.999 208.758 270.028 208.811 268.881C208.917 266.939 207.417 265.28 205.459 265.192C203.66 265.104 202.143 266.392 201.843 268.122L174.785 266.833C174.662 265.086 173.268 263.656 171.469 263.568C170.922 263.533 170.411 263.638 169.952 263.85L157.605 239.879C158.628 239.297 159.333 238.237 159.404 236.984C159.475 235.66 158.769 234.478 157.711 233.825L172.633 210.595C173.092 210.86 173.621 211.036 174.203 211.071C176.073 211.16 177.66 209.765 177.854 207.912L204.824 209.2C204.842 211.054 206.289 212.607 208.158 212.695C210.099 212.784 211.757 211.283 211.845 209.341C211.898 208.106 211.316 206.976 210.381 206.305L225.004 183.535C225.48 183.799 226.009 183.994 226.591 184.011C228.461 184.099 230.048 182.705 230.242 180.851L257.107 182.14C257.23 183.888 258.641 185.317 260.423 185.406C262.363 185.494 264.003 183.994 264.109 182.052C264.162 180.922 263.668 179.916 262.892 179.228L277.427 156.598C277.85 156.81 278.326 156.951 278.838 156.969C280.778 157.057 282.419 155.574 282.524 153.632C282.613 151.691 281.113 150.031 279.173 149.943C278.75 149.926 278.344 149.978 277.956 150.12L265.291 125.513C266.244 124.931 266.896 123.889 266.949 122.706C267.002 121.594 266.526 120.571 265.732 119.882L280.39 97.0583C280.796 97.2349 281.237 97.3584 281.695 97.3761C283.636 97.4643 285.276 95.9639 285.382 94.0222L316.356 95.505L333.043 69.5392C333.484 69.7686 333.96 69.9099 334.471 69.9275C336.271 70.0158 337.788 68.7272 338.087 66.9973L365.093 68.2859C365.216 70.0334 366.61 71.4456 368.409 71.5338C368.956 71.5691 369.467 71.4456 369.943 71.2514L382.538 95.6992C381.55 96.2817 380.862 97.3231 380.809 98.5588C380.756 99.7061 381.268 100.748 382.097 101.436L367.474 124.207C367.051 124.013 366.592 123.889 366.116 123.854C364.176 123.766 362.535 125.266 362.429 127.208L335.265 125.901C335.142 124.154 333.731 122.724 331.949 122.636C330.009 122.548 328.368 124.048 328.262 125.99C328.21 127.119 328.721 128.161 329.515 128.832L314.892 151.602C314.504 151.426 314.081 151.32 313.64 151.302C311.699 151.214 310.059 152.714 309.971 154.656C309.883 156.598 311.364 158.24 313.305 158.345C313.746 158.363 314.187 158.292 314.592 158.151L327.134 182.493C326.146 183.076 325.458 184.135 325.405 185.353C325.352 186.5 325.864 187.542 326.693 188.23L312.07 211.018C311.664 210.824 311.188 210.701 310.712 210.665C308.912 210.577 307.395 211.866 307.096 213.596L279.72 212.289C279.596 210.542 278.185 209.112 276.404 209.024C274.463 208.936 272.823 210.418 272.717 212.378C272.664 213.596 273.229 214.708 274.146 215.378L259.647 237.955C259.294 237.814 258.923 237.708 258.518 237.69C256.577 237.602 254.937 239.102 254.831 241.044C254.743 242.986 256.242 244.627 258.183 244.733C258.588 244.751 258.959 244.68 259.329 244.574L271.624 268.44C270.653 269.022 269.965 270.064 269.913 271.299C269.824 273.241 271.306 274.883 273.246 274.989C275.045 275.077 276.562 273.788 276.862 272.058L304.485 273.382C304.608 275.13 306.002 276.542 307.801 276.63C308.136 276.648 308.454 276.595 308.754 276.524L321.383 301.043C320.607 301.643 320.06 302.578 320.007 303.655C319.954 304.802 320.466 305.844 321.277 306.515L306.637 329.303C306.231 329.109 305.773 328.985 305.279 328.95C303.339 328.862 301.698 330.362 301.61 332.304L274.587 331.015C274.463 329.268 273.052 327.838 271.271 327.75C269.33 327.662 267.672 329.162 267.584 331.104C267.531 332.163 267.955 333.098 268.66 333.787L253.72 357.052C253.385 356.928 253.05 356.84 252.679 356.822C250.739 356.734 249.098 358.234 249.01 360.176C248.922 362.118 250.421 363.76 252.362 363.865C252.873 363.883 253.385 363.795 253.826 363.618L266.12 387.501C265.362 388.119 264.85 389.019 264.797 390.078C264.709 392.02 266.208 393.662 268.149 393.75C269.948 393.838 271.482 392.55 271.765 390.802L298.082 392.055C298.206 393.803 299.599 395.233 301.398 395.321C303.339 395.409 304.997 393.909 305.085 391.967C305.138 390.943 304.75 390.025 304.097 389.355L319.178 365.878C319.619 366.107 320.096 366.248 320.625 366.284C322.265 366.354 323.694 365.295 324.153 363.777L351.299 365.083C351.599 366.619 352.922 367.837 354.562 367.908C356.503 367.996 358.143 366.496 358.249 364.554C358.302 363.406 357.79 362.365 356.979 361.694L371.619 338.888C372.043 339.1 372.501 339.224 372.995 339.241C374.794 339.329 376.311 338.041 376.611 336.311L403.652 337.6C403.775 339.347 405.186 340.777 406.968 340.865C407.374 340.883 407.779 340.83 408.15 340.706L420.656 364.995C419.827 365.595 419.245 366.548 419.192 367.678C419.103 369.62 420.603 371.262 422.543 371.35C424.272 371.438 425.753 370.255 426.124 368.631L453.394 369.938C453.517 371.685 454.928 373.115 456.71 373.186C457.204 373.203 457.68 373.133 458.103 372.974L470.521 397.068C469.657 397.669 469.057 398.639 469.004 399.787C468.916 401.729 470.415 403.37 472.356 403.476C474.155 403.564 475.69 402.276 475.972 400.546L502.977 401.834C503.101 403.582 504.494 405.012 506.293 405.1C508.234 405.188 509.874 403.706 509.98 401.764C510.033 400.616 509.539 399.593 508.71 398.904L523.35 376.098C523.756 376.292 524.232 376.416 524.708 376.451C526.508 376.539 528.025 375.251 528.324 373.521L555.824 374.827C555.947 376.575 557.358 378.005 559.14 378.093C561.08 378.181 562.721 376.698 562.826 374.757C562.879 373.486 562.262 372.356 561.292 371.685L575.791 349.109C576.197 349.285 576.62 349.409 577.096 349.426C579.037 349.514 580.695 348.032 580.783 346.09C580.871 344.148 579.372 342.507 577.431 342.401C576.973 342.383 576.514 342.454 576.109 342.595L563.814 318.73C564.855 318.165 565.578 317.088 565.631 315.817C565.719 313.875 564.237 312.234 562.28 312.128C560.48 312.04 558.963 313.328 558.664 315.058L531.164 313.734C531.041 311.987 529.63 310.557 527.848 310.469C527.442 310.451 527.037 310.522 526.666 310.628L514.072 286.162C514.954 285.562 515.554 284.591 515.607 283.444C515.695 281.502 514.196 279.843 512.255 279.755C510.456 279.666 508.939 280.955 508.639 282.685L481.422 281.379C481.299 279.631 479.888 278.201 478.106 278.113C477.612 278.095 477.136 278.166 476.713 278.325L464.312 254.23C465.177 253.63 465.794 252.641 465.847 251.512C465.935 249.57 464.436 247.928 462.496 247.84C460.714 247.752 459.179 249.04 458.88 250.77L431.804 249.482C431.68 247.734 430.269 246.304 428.487 246.234C428.064 246.216 427.658 246.287 427.27 246.41L414.676 221.945C415.558 221.345 416.158 220.356 416.211 219.227C416.299 217.285 414.8 215.626 412.859 215.537C411.06 215.449 409.543 216.738 409.243 218.467L382.026 217.161C381.903 215.414 380.509 213.984 378.71 213.896C378.216 213.878 377.758 213.949 377.317 214.107L364.899 190.013C365.781 189.413 366.38 188.424 366.433 187.294C366.504 186.076 365.922 184.964 365.005 184.294L380.086 160.817C380.492 161.011 380.95 161.134 381.427 161.152C383.226 161.24 384.743 159.952 385.043 158.222L412.048 159.51C412.171 161.258 413.582 162.688 415.364 162.776C417.304 162.864 418.945 161.364 419.051 159.422C419.104 158.275 418.592 157.251 417.781 156.563L432.421 133.774C432.827 133.968 433.303 134.092 433.779 134.127C435.578 134.215 437.095 132.927 437.395 131.197L465.018 132.521C465.318 134.074 466.641 135.275 468.299 135.345C468.634 135.363 468.951 135.31 469.251 135.239L481.74 159.493C481.069 160.093 480.628 160.958 480.576 161.946C480.487 163.888 481.987 165.53 483.909 165.618C485.567 165.706 486.979 164.629 487.437 163.111L514.584 164.418C514.883 165.971 516.206 167.171 517.847 167.242C518.129 167.26 518.394 167.224 518.658 167.171L531.482 192.078C530.688 192.678 530.159 193.614 530.106 194.673C530.053 195.82 530.565 196.862 531.376 197.532L516.753 220.321C516.348 220.127 515.889 220.003 515.395 219.986C513.455 219.897 511.814 221.38 511.708 223.339C511.62 225.281 513.12 226.923 515.06 227.029C515.395 227.046 515.713 226.993 516.012 226.923L528.501 251.176C527.831 251.776 527.39 252.641 527.337 253.63C527.248 255.572 528.73 257.213 530.67 257.319C532.311 257.39 533.74 256.331 534.198 254.813L561.345 256.101C561.645 257.654 562.967 258.855 564.608 258.925C566.548 259.014 568.206 257.513 568.294 255.572C568.347 254.424 567.836 253.383 567.024 252.712L581.665 229.923C582.088 230.135 582.547 230.259 583.041 230.277C584.981 230.365 586.621 228.882 586.727 226.923C586.815 224.981 585.316 223.339 583.376 223.233C582.723 223.198 582.123 223.357 581.594 223.639L569.194 199.58C570.27 199.033 571.046 197.938 571.099 196.632C571.152 195.414 570.57 194.302 569.653 193.631L584.24 170.931C584.664 171.161 585.157 171.302 585.669 171.32C587.609 171.408 589.25 169.907 589.355 167.966C589.444 166.024 587.944 164.365 586.004 164.276C585.528 164.365 585.052 164.471 584.593 164.647ZM532.099 198.115C532.523 198.309 532.981 198.433 533.457 198.468C535.098 198.539 536.527 197.48 536.985 195.961L564.202 197.268C564.502 198.821 565.825 200.021 567.465 200.092C567.801 200.11 568.118 200.057 568.436 199.986L580.924 224.222C580.236 224.822 579.778 225.705 579.742 226.693C579.689 227.841 580.201 228.864 581.012 229.553L566.372 252.359C565.948 252.165 565.49 252.024 565.014 252.006C563.073 251.918 561.433 253.418 561.327 255.36L534.392 254.071C534.48 252.129 532.981 250.488 531.041 250.382C530.388 250.347 529.771 250.505 529.224 250.806L516.824 226.729C517.917 226.181 518.676 225.087 518.746 223.781C518.799 222.633 518.288 221.592 517.459 220.903L532.099 198.115ZM464.912 131.762L437.395 130.438C437.272 128.69 435.861 127.261 434.079 127.172C433.603 127.155 433.162 127.225 432.738 127.367L420.321 103.254C421.167 102.654 421.749 101.683 421.802 100.571C421.855 99.459 421.361 98.4352 420.585 97.7468L435.755 74.1463C436.125 74.3052 436.531 74.4111 436.954 74.4287C438.454 74.4993 439.759 73.6344 440.323 72.3458L467.734 73.6521C468.175 74.9936 469.41 75.9821 470.892 76.0527C471.156 76.0704 471.403 76.0527 471.65 75.9997L484.368 100.712C483.751 101.312 483.327 102.142 483.292 103.078C483.239 104.172 483.698 105.161 484.456 105.849L469.798 128.69C469.428 128.532 469.022 128.426 468.581 128.408C466.658 128.302 465.018 129.82 464.912 131.762ZM403.616 336.841L376.576 335.552C376.452 333.804 375.041 332.375 373.26 332.286C372.748 332.269 372.254 332.357 371.796 332.533L359.395 308.456C360.295 307.856 360.93 306.85 360.983 305.685C361.036 304.52 360.507 303.461 359.66 302.773L376.029 277.283L406.386 278.731C406.509 280.478 407.903 281.908 409.702 281.979C410.178 281.996 410.619 281.926 411.042 281.785L423.46 305.897C422.614 306.497 422.032 307.468 421.979 308.58C421.926 309.692 422.42 310.698 423.196 311.387L408.538 334.21C408.132 334.016 407.691 333.91 407.232 333.875C405.451 333.822 403.916 335.111 403.616 336.841ZM426.441 246.834C425.489 247.416 424.819 248.458 424.766 249.676C424.713 250.735 425.136 251.706 425.859 252.377L411.166 275.236C410.813 275.094 410.443 275.006 410.055 274.971C408.414 274.883 406.985 275.959 406.527 277.477L376.1 276.03L362.147 248.952C362.958 248.352 363.505 247.416 363.558 246.322C363.611 245.228 363.152 244.239 362.412 243.568L377.087 220.727C377.458 220.886 377.863 220.992 378.304 221.027C380.104 221.115 381.621 219.827 381.92 218.097L409.137 219.403C409.261 221.151 410.672 222.58 412.454 222.651C412.947 222.669 413.424 222.598 413.865 222.421L426.441 246.834ZM475.919 278.837C475.037 279.437 474.437 280.425 474.384 281.573C474.331 282.72 474.825 283.762 475.654 284.432L461.014 307.221C460.59 307.009 460.132 306.885 459.638 306.868C457.856 306.779 456.322 308.068 456.022 309.798L429.017 308.509C428.893 306.762 427.482 305.332 425.701 305.244C425.207 305.226 424.73 305.314 424.289 305.473L411.871 281.379C412.753 280.778 413.353 279.79 413.424 278.642C413.477 277.495 412.965 276.454 412.154 275.783L426.794 252.994C427.2 253.189 427.658 253.312 428.152 253.33C429.952 253.418 431.468 252.129 431.768 250.4L458.827 251.688C458.95 253.436 460.361 254.866 462.143 254.954C462.637 254.971 463.113 254.901 463.554 254.724L475.919 278.837ZM525.837 311.051C524.867 311.634 524.179 312.693 524.126 313.911C524.073 314.988 524.514 315.941 525.238 316.629L510.544 339.488C510.174 339.329 509.786 339.241 509.362 339.206C507.722 339.118 506.293 340.194 505.835 341.712L478.635 340.406C478.335 338.853 477.012 337.652 475.372 337.564C474.966 337.547 474.578 337.617 474.208 337.723L461.561 313.169C462.372 312.569 462.919 311.634 462.972 310.539C463.025 309.445 462.566 308.456 461.825 307.786L476.501 284.944C476.871 285.103 477.277 285.209 477.718 285.244C479.517 285.333 481.034 284.044 481.334 282.314L508.551 283.62C508.675 285.368 510.086 286.798 511.867 286.868C512.361 286.886 512.837 286.815 513.278 286.639L525.837 311.051ZM560.48 371.367C560.145 371.244 559.81 371.156 559.44 371.138C557.641 371.05 556.124 372.338 555.824 374.068L528.324 372.762C528.201 371.014 526.807 369.585 525.008 369.496C524.532 369.479 524.091 369.549 523.668 369.691L511.25 345.578C512.096 344.978 512.679 344.007 512.732 342.895C512.784 341.765 512.291 340.759 511.514 340.071L526.172 317.247C526.578 317.441 527.019 317.547 527.495 317.582C529.295 317.671 530.812 316.382 531.111 314.652L558.611 315.958C558.734 317.706 560.145 319.136 561.927 319.224C562.297 319.242 562.65 319.189 562.985 319.1L575.315 343.036C574.398 343.636 573.78 344.643 573.727 345.808C573.674 346.99 574.204 348.032 575.05 348.72L560.48 371.367ZM458.791 372.674C459.673 372.073 460.273 371.085 460.344 369.938C460.397 368.79 459.885 367.749 459.074 367.078L473.714 344.29C474.12 344.484 474.578 344.607 475.072 344.643C476.871 344.731 478.388 343.442 478.688 341.712L505.746 343.001C505.87 344.749 507.281 346.178 509.063 346.267C509.556 346.284 510.033 346.214 510.456 346.055L522.856 370.132C521.974 370.732 521.375 371.72 521.322 372.868C521.269 374.015 521.78 375.057 522.592 375.727L507.951 398.534C507.528 398.322 507.069 398.198 506.576 398.181C504.776 398.092 503.259 399.381 502.96 401.111L475.954 399.822C475.831 398.075 474.42 396.645 472.638 396.557C472.126 396.539 471.65 396.61 471.227 396.786L458.791 372.674ZM408.873 340.459C409.843 339.877 410.531 338.835 410.584 337.6C410.637 336.523 410.196 335.552 409.473 334.881L424.166 312.004C424.536 312.163 424.924 312.269 425.348 312.287C427.006 312.375 428.417 311.298 428.876 309.78L456.022 311.086C456.322 312.64 457.645 313.84 459.285 313.911C459.709 313.928 460.097 313.858 460.485 313.752L473.132 338.288C472.32 338.906 471.756 339.841 471.703 340.936C471.65 342.03 472.109 343.036 472.867 343.707L458.209 366.531C457.839 366.372 457.415 366.266 456.992 366.248C455.193 366.16 453.676 367.449 453.376 369.179L426.141 367.872C426.124 366.037 424.677 364.501 422.808 364.413C422.279 364.395 421.785 364.483 421.326 364.677L408.873 340.459ZM269.295 334.387C269.771 334.669 270.301 334.846 270.9 334.881C272.699 334.969 274.234 333.681 274.516 331.951L301.663 333.24C301.963 334.793 303.286 335.993 304.926 336.081C305.243 336.099 305.543 336.064 305.826 335.993L318.332 360.264C317.679 360.865 317.256 361.712 317.203 362.683C317.15 363.795 317.626 364.801 318.402 365.489L303.356 388.931C302.862 388.631 302.298 388.419 301.68 388.384C299.881 388.296 298.364 389.584 298.064 391.314L271.747 390.061C271.606 388.313 270.212 386.901 268.431 386.83C267.849 386.795 267.302 386.936 266.79 387.166L254.514 363.318C255.36 362.718 255.925 361.765 255.978 360.635C256.031 359.364 255.413 358.234 254.443 357.564L269.295 334.387ZM321.948 307.08C322.353 307.291 322.83 307.397 323.306 307.433C324.946 307.503 326.375 306.444 326.834 304.926L354.033 306.215C354.333 307.768 355.656 308.968 357.296 309.057C357.631 309.074 357.949 309.021 358.266 308.951L370.755 333.187C370.067 333.787 369.608 334.669 369.573 335.658C369.52 336.805 370.014 337.829 370.843 338.517L356.203 361.324C355.797 361.112 355.321 361.006 354.844 360.971C352.904 360.882 351.264 362.365 351.158 364.307L324.241 363.018C324.329 361.076 322.83 359.435 320.889 359.329C320.237 359.294 319.619 359.452 319.073 359.753L306.672 335.693C307.748 335.128 308.524 334.052 308.595 332.745C308.648 331.598 308.136 330.556 307.307 329.868L321.948 307.08ZM309.512 276.33C310.606 275.765 311.364 274.688 311.435 273.382C311.488 272.235 310.976 271.193 310.147 270.505L324.752 247.787C325.123 247.946 325.511 248.052 325.934 248.07C327.575 248.158 329.003 247.081 329.462 245.563L356.608 246.852C356.908 248.405 358.231 249.605 359.872 249.694C360.295 249.711 360.683 249.641 361.071 249.535L375.147 276.86L358.796 302.314C358.443 302.172 358.055 302.066 357.631 302.031C355.832 301.961 354.315 303.231 354.015 304.961L326.957 303.673C326.834 301.925 325.423 300.495 323.641 300.407C323.077 300.39 322.547 300.513 322.054 300.725L309.512 276.33ZM274.834 215.855C275.204 215.996 275.592 216.102 275.998 216.12C277.797 216.208 279.332 214.919 279.614 213.19L306.99 214.496C307.113 216.243 308.524 217.673 310.306 217.744C310.782 217.761 311.223 217.691 311.646 217.55L324.064 241.662C323.218 242.28 322.636 243.233 322.6 244.345C322.547 245.457 323.024 246.463 323.817 247.152L309.195 269.905C308.859 269.764 308.489 269.675 308.101 269.658C306.302 269.569 304.785 270.858 304.485 272.588L276.862 271.264C276.739 269.517 275.328 268.087 273.546 268.016C273.123 267.998 272.735 268.069 272.364 268.175L260.07 244.31C261.058 243.727 261.746 242.668 261.816 241.432C261.869 240.197 261.287 239.085 260.352 238.414L274.834 215.855ZM327.345 188.777C327.751 188.971 328.21 189.095 328.703 189.113C330.503 189.201 332.02 187.93 332.319 186.2L359.378 187.489C359.519 189.236 360.912 190.666 362.694 190.736C363.188 190.772 363.664 190.684 364.087 190.525L376.505 214.619C375.623 215.22 375.024 216.208 374.971 217.355C374.918 218.503 375.429 219.544 376.241 220.215L361.6 243.003C361.177 242.792 360.718 242.668 360.224 242.65C358.425 242.562 356.908 243.851 356.608 245.581L329.603 244.292C329.48 242.545 328.068 241.115 326.287 241.026C325.793 241.009 325.299 241.079 324.876 241.256L312.458 217.161C313.34 216.561 313.94 215.573 313.992 214.425C314.045 213.278 313.534 212.236 312.722 211.548L327.345 188.777ZM362.465 128.126C362.764 129.679 364.087 130.879 365.728 130.95C366.098 130.967 366.433 130.915 366.768 130.826L379.257 155.062C378.551 155.68 378.075 156.545 378.022 157.569C377.969 158.734 378.481 159.775 379.327 160.446L364.211 183.976C363.84 183.817 363.452 183.711 363.029 183.693C361.389 183.623 359.96 184.7 359.501 186.2L332.284 184.894C331.984 183.34 330.661 182.14 329.021 182.052C328.615 182.034 328.227 182.087 327.857 182.211L315.315 157.834C316.25 157.233 316.885 156.227 316.938 155.027C316.991 153.844 316.444 152.767 315.58 152.079L330.185 129.344C330.608 129.555 331.067 129.679 331.561 129.697C333.36 129.785 334.877 128.496 335.177 126.766L362.465 128.126ZM382.785 101.966C383.19 102.16 383.649 102.283 384.125 102.301C385.924 102.389 387.459 101.101 387.741 99.3707L414.817 100.659C414.941 102.407 416.352 103.837 418.133 103.925C418.627 103.943 419.104 103.872 419.544 103.695L431.945 127.79C431.063 128.39 430.463 129.379 430.392 130.526C430.34 131.674 430.851 132.715 431.663 133.386L417.022 156.192C416.599 155.98 416.14 155.857 415.646 155.839C413.847 155.751 412.33 157.039 412.03 158.769L385.025 157.48C384.901 155.733 383.49 154.303 381.709 154.215C381.197 154.197 380.739 154.268 380.298 154.444L367.88 130.35C368.762 129.749 369.361 128.761 369.432 127.631C369.485 126.484 368.973 125.442 368.162 124.754L382.785 101.966ZM370.649 70.8807C371.46 70.2806 372.007 69.345 372.06 68.2506C372.113 67.1562 371.654 66.1853 370.896 65.4969L385.572 42.6555C385.942 42.8143 386.365 42.9203 386.789 42.9556C388.57 43.0438 390.105 41.7552 390.405 40.0254L418.045 41.3316C418.345 42.885 419.668 44.0853 421.308 44.1559C421.626 44.1735 421.926 44.1382 422.208 44.0676L434.714 68.3389C434.061 68.939 433.638 69.7863 433.603 70.7572C433.55 71.8692 434.026 72.8754 434.802 73.5461L419.633 97.1643C419.262 97.0054 418.874 96.8995 418.451 96.8818C416.81 96.8112 415.382 97.8703 414.923 99.3884L387.724 98.0822C387.424 96.5288 386.101 95.3285 384.443 95.2402C384.037 95.2226 383.649 95.2932 383.279 95.3991L370.649 70.8807ZM183.217 89.6093L210.328 90.8979C210.451 92.6454 211.862 94.0752 213.644 94.1635C214.138 94.1811 214.614 94.1105 215.037 93.934L227.455 118.029C226.591 118.629 225.991 119.617 225.938 120.747C225.885 121.894 226.397 122.918 227.191 123.607L212.233 146.907C211.951 146.801 211.633 146.731 211.316 146.731C209.746 146.66 208.405 147.613 207.876 149.008L180.518 147.701C180.13 146.272 178.86 145.177 177.308 145.107C176.884 145.089 176.496 145.142 176.108 145.265L161.909 117.693L178.278 92.1864C178.683 92.3806 179.124 92.4865 179.601 92.5218C181.4 92.6101 182.934 91.3392 183.217 89.6093ZM262.169 178.786C261.746 178.574 261.252 178.433 260.74 178.398C258.941 178.31 257.424 179.598 257.124 181.328L230.225 180.04C229.995 178.398 228.637 177.092 226.909 177.003C226.432 176.986 225.956 177.056 225.533 177.215L213.115 153.12C213.979 152.52 214.579 151.549 214.632 150.42C214.685 149.202 214.12 148.09 213.203 147.419L228.126 124.189C228.478 124.33 228.849 124.436 229.255 124.454C230.913 124.542 232.324 123.465 232.782 121.947L259.946 123.254C260.246 124.807 261.569 126.007 263.21 126.078C263.651 126.096 264.074 126.025 264.462 125.901L277.127 150.49C276.157 151.073 275.504 152.114 275.434 153.332C275.381 154.462 275.875 155.486 276.668 156.157L262.169 178.786ZM209.622 205.917C209.27 205.776 208.899 205.67 208.493 205.652C206.782 205.564 205.301 206.729 204.913 208.353L177.854 207.064C177.625 205.423 176.267 204.117 174.538 204.028C174.027 204.011 173.533 204.099 173.092 204.275L160.692 180.181C161.591 179.581 162.209 178.592 162.261 177.427C162.314 176.191 161.732 175.062 160.78 174.391L175.385 151.638C175.861 151.903 176.39 152.097 176.955 152.114C178.825 152.203 180.412 150.808 180.606 148.955L207.629 150.243C207.647 152.097 209.093 153.632 210.963 153.738C211.439 153.756 211.915 153.685 212.339 153.526L224.757 177.621C223.892 178.221 223.293 179.192 223.24 180.34C223.187 181.381 223.61 182.352 224.316 183.023L209.622 205.917ZM169.229 264.292C168.418 264.892 167.853 265.845 167.8 266.939C167.747 268.034 168.223 269.022 168.964 269.711L154.306 292.534C153.936 292.358 153.513 292.252 153.089 292.234C151.29 292.146 149.773 293.435 149.473 295.165L119.011 293.699L104.952 266.392C105.905 265.792 106.557 264.768 106.61 263.568C106.663 262.526 106.24 261.573 105.552 260.885L120.245 238.008C120.598 238.149 120.951 238.238 121.357 238.255C123.015 238.343 124.426 237.267 124.884 235.749L152.419 237.055C152.542 238.802 153.936 240.232 155.735 240.32C156.123 240.338 156.476 240.285 156.829 240.179L169.229 264.292ZM204.048 324.502C203.625 324.29 203.166 324.167 202.673 324.149C200.873 324.061 199.356 325.349 199.057 327.079L172.051 325.79C171.928 324.043 170.517 322.613 168.735 322.525C168.241 322.507 167.765 322.595 167.324 322.754L154.906 298.66C155.788 298.059 156.388 297.071 156.458 295.924C156.511 294.776 156 293.735 155.188 293.064L169.811 270.276C170.217 270.47 170.675 270.593 171.169 270.629C172.968 270.717 174.485 269.428 174.785 267.698L201.843 268.987C201.967 270.734 203.378 272.164 205.177 272.235C205.671 272.253 206.147 272.182 206.571 272.023L218.971 296.1C218.089 296.7 217.489 297.689 217.419 298.836C217.366 299.984 217.877 301.025 218.689 301.713L204.048 324.502ZM151.519 351.845C151.184 351.721 150.831 351.615 150.443 351.597C148.644 351.509 147.127 352.798 146.827 354.528L119.346 353.221C119.222 351.474 117.829 350.062 116.03 349.956C115.553 349.938 115.112 350.009 114.689 350.168L102.271 326.055C103.118 325.455 103.7 324.484 103.753 323.355C103.806 322.225 103.312 321.219 102.536 320.53L118.958 294.97L149.491 296.418C149.791 297.971 151.114 299.172 152.754 299.242C153.107 299.26 153.46 299.207 153.777 299.119L166.248 323.337C165.542 323.955 165.066 324.82 165.031 325.826C164.978 326.991 165.489 328.032 166.318 328.721L151.519 351.845ZM64.7176 324.749C65.1233 324.943 65.5819 325.067 66.0758 325.084C67.875 325.173 69.392 323.902 69.6918 322.172L96.7501 323.46C96.8736 325.208 98.2847 326.638 100.066 326.726C100.56 326.744 101.036 326.655 101.477 326.497L113.878 350.574C112.996 351.174 112.396 352.162 112.343 353.31C112.29 354.457 112.802 355.498 113.613 356.187L98.9726 378.975C98.5493 378.781 98.0907 378.64 97.5968 378.622C95.7976 378.534 94.2806 379.823 93.9808 381.553L66.9754 380.264C66.8519 378.516 65.4408 377.087 63.6593 377.016C63.1654 376.998 62.6891 377.069 62.2481 377.245L49.8303 353.151C50.7122 352.551 51.3119 351.562 51.3649 350.415C51.4178 349.267 50.9062 348.226 50.0948 347.555L64.7176 324.749ZM67.7868 265.033C68.1572 265.192 68.5629 265.298 68.9863 265.315C70.6267 265.404 72.0554 264.327 72.5141 262.809L99.6605 264.097C99.9604 265.651 101.283 266.851 102.924 266.939C103.347 266.957 103.735 266.886 104.123 266.78L118.199 294.105L101.583 319.965C101.213 319.807 100.825 319.701 100.401 319.683C98.7609 319.612 97.3322 320.689 96.8736 322.19L69.6565 320.901C69.3567 319.348 68.0338 318.147 66.3757 318.059C65.97 318.041 65.5819 318.112 65.2115 318.218L52.776 294.07C53.5697 293.452 54.0989 292.534 54.1518 291.458C54.2047 290.24 53.6227 289.128 52.7231 288.457L67.7868 265.033ZM70.3797 206.041C70.7854 206.235 71.2441 206.358 71.7203 206.376C73.5195 206.464 75.0364 205.176 75.3363 203.446L102.395 204.752C102.518 206.5 103.929 207.929 105.711 208C106.205 208.035 106.681 207.947 107.122 207.77L119.522 231.865C118.64 232.465 118.04 233.454 117.97 234.601C117.917 235.749 118.428 236.772 119.24 237.461L104.599 260.249C104.176 260.038 103.718 259.914 103.224 259.896C101.424 259.808 99.9075 261.097 99.6076 262.826L72.6023 261.538C72.4788 259.79 71.0677 258.378 69.2685 258.272C68.7746 258.255 68.2807 258.343 67.8574 258.502L55.4395 234.407C56.3214 233.807 56.9212 232.818 56.9741 231.689C57.027 230.541 56.5155 229.5 55.7041 228.811L70.3797 206.041ZM122.821 179.069C123.191 179.21 123.561 179.316 123.985 179.333C125.784 179.422 127.301 178.133 127.601 176.403L155.276 177.727C155.488 179.386 156.864 180.71 158.593 180.799C158.945 180.816 159.263 180.763 159.598 180.675L172.086 204.911C171.399 205.511 170.94 206.394 170.887 207.382C170.834 208.441 171.275 209.412 171.981 210.083L156.97 233.454C156.688 233.366 156.405 233.295 156.088 233.295C154.447 233.207 153.019 234.283 152.56 235.802L125.025 234.478C124.902 232.73 123.491 231.3 121.709 231.23C121.233 231.194 120.792 231.283 120.369 231.424L107.951 207.312C108.798 206.711 109.38 205.741 109.433 204.628C109.485 203.499 108.992 202.493 108.215 201.804L122.821 179.069ZM110.614 147.684C111.567 147.084 112.22 146.06 112.272 144.859C112.325 143.818 111.902 142.865 111.214 142.176L125.907 119.3C126.26 119.441 126.631 119.529 127.019 119.547C128.659 119.635 130.088 118.558 130.547 117.04L160.974 118.488L175.05 145.813C174.238 146.43 173.692 147.366 173.639 148.443C173.586 149.449 173.974 150.367 174.609 151.038L159.898 173.95C159.598 173.844 159.263 173.755 158.928 173.755C157.217 173.685 155.735 174.85 155.347 176.456L127.601 175.132C127.301 173.579 125.978 172.379 124.32 172.308C123.985 172.29 123.667 172.343 123.35 172.414L110.614 147.684ZM76.0419 87.3145C76.4476 87.5087 76.9062 87.6323 77.4001 87.6499C79.1993 87.7382 80.7162 86.4496 81.0161 84.7197L108.074 86.0083C108.198 87.7558 109.609 89.168 111.391 89.2563C111.884 89.2739 112.361 89.2033 112.784 89.0444L125.184 113.139C124.302 113.739 123.703 114.728 123.65 115.875C123.597 117.023 124.108 118.064 124.92 118.752L110.279 141.541C109.856 141.329 109.397 141.206 108.903 141.188C107.104 141.1 105.587 142.388 105.287 144.118L78.282 142.829C78.1586 141.082 76.7474 139.652 74.9659 139.564C74.472 139.546 73.9781 139.635 73.5548 139.793L61.1369 115.699C62.0188 115.098 62.6186 114.11 62.6891 112.963C62.742 111.815 62.2305 110.774 61.4191 110.103L76.0419 87.3145ZM78.8818 27.9515C79.2875 28.1457 79.7461 28.2693 80.24 28.2869C82.0391 28.3752 83.5561 27.0866 83.856 25.3567L111.108 26.6629C111.232 28.4105 112.643 29.8403 114.424 29.9109C114.848 29.9285 115.271 29.8579 115.659 29.7344L128.095 53.882C127.301 54.4998 126.754 55.4177 126.701 56.5121C126.648 57.5889 127.107 58.5774 127.83 59.2482L112.925 82.5133C112.555 82.3544 112.167 82.2661 111.743 82.2308C110.103 82.1602 108.674 83.237 108.215 84.7374L80.9984 83.4312C80.6986 81.8778 79.3757 80.6775 77.7176 80.5892C77.3119 80.5716 76.9238 80.6422 76.5534 80.7481L63.9591 56.318C64.8411 55.7178 65.4408 54.7293 65.4937 53.582C65.5466 52.4346 65.0351 51.3931 64.2237 50.7224L78.8818 27.9515ZM165.631 55.1177C165.242 54.9411 164.802 54.8176 164.343 54.7999C162.544 54.7117 161.027 56.0002 160.727 57.7301L133.722 56.4415C133.598 54.694 132.205 53.2642 130.405 53.176C129.876 53.1583 129.365 53.2642 128.888 53.4584L116.488 29.3813C117.423 28.7988 118.058 27.775 118.111 26.5923C118.164 25.4097 117.635 24.3329 116.753 23.6621L131.376 0.8913C131.817 1.12077 132.293 1.26198 132.822 1.27964C134.621 1.3679 136.138 0.0793128 136.438 -1.65056L163.496 -0.361983C163.62 1.38555 165.031 2.81534 166.812 2.88595C167.271 2.9036 167.712 2.833 168.118 2.69179L180.536 26.8042C179.706 27.4043 179.124 28.3575 179.071 29.4696C179.019 30.5816 179.495 31.5878 180.271 32.2586L165.631 55.1177ZM177.713 86.1848C176.884 86.8026 176.302 87.7558 176.249 88.8503C176.196 89.9623 176.673 90.9685 177.449 91.6392L161.009 117.234L130.652 115.787C130.529 114.039 129.135 112.61 127.336 112.521C126.86 112.504 126.419 112.574 125.996 112.716L113.595 88.6208C114.442 88.0206 115.024 87.0498 115.077 85.9201C115.13 84.7904 114.636 83.7842 113.86 83.0958L128.765 59.8837C129.171 60.0602 129.594 60.1837 130.053 60.2014C131.693 60.272 133.122 59.2129 133.58 57.6948L160.745 58.9834C161.044 60.5368 162.367 61.7371 164.008 61.8077C164.396 61.8253 164.749 61.7724 165.101 61.6665L177.713 86.1848ZM230.754 65.1792C231.142 65.3557 231.583 65.4793 232.042 65.4969C233.841 65.5852 235.358 64.2966 235.658 62.5667L262.716 63.8553C262.839 65.6028 264.233 67.0326 266.032 67.1032C266.543 67.1209 267.037 67.0326 267.496 66.8561L279.896 90.9332C278.979 91.5333 278.362 92.5395 278.309 93.7045C278.256 94.8695 278.785 95.9286 279.632 96.6171L264.991 119.406C264.568 119.194 264.074 119.053 263.562 119.017C261.763 118.929 260.246 120.218 259.946 121.947L232.941 120.659C232.818 118.911 231.406 117.481 229.625 117.393C229.149 117.376 228.69 117.446 228.267 117.605L215.849 93.4927C216.696 92.8925 217.278 91.9217 217.348 90.8096C217.401 89.6799 216.907 88.6561 216.131 87.9853L230.754 65.1792ZM283.336 37.7836C283.689 37.9248 284.077 38.0307 284.5 38.0484C286.299 38.1366 287.816 36.848 288.116 35.1182L315.492 36.4244C315.615 38.1719 317.026 39.5841 318.808 39.6723C319.284 39.69 319.725 39.6194 320.148 39.4781L332.566 63.5905C331.72 64.1907 331.155 65.1615 331.085 66.2736C331.032 67.3857 331.508 68.4095 332.302 69.0802L315.88 94.6577L285.276 93.1926C284.976 91.6392 283.653 90.4389 282.013 90.3507C281.678 90.333 281.36 90.386 281.043 90.4566L268.554 66.2206C269.242 65.6028 269.701 64.7379 269.736 63.7494C269.789 62.602 269.295 61.5782 268.484 60.8898L283.336 37.7836ZM385.007 36.5126C384.125 37.1128 383.526 38.1013 383.455 39.2487C383.402 40.396 383.914 41.4375 384.743 42.1083L370.102 64.8968C369.679 64.6849 369.22 64.5614 368.726 64.5437C366.927 64.4555 365.393 65.744 365.11 67.4739L338.087 66.1853C337.964 64.4378 336.553 63.008 334.771 62.9197C334.26 62.9021 333.801 62.9904 333.36 63.1492L320.942 39.0545C321.824 38.4543 322.424 37.4658 322.477 36.3185C322.53 35.1711 322.018 34.1297 321.207 33.4589L335.847 10.6704C336.253 10.8646 336.712 10.9881 337.188 11.0058C338.987 11.094 340.504 9.80546 340.804 8.09324L367.862 9.38181C367.986 11.1293 369.397 12.5415 371.178 12.6297C371.672 12.6474 372.148 12.5768 372.572 12.4179L385.007 36.5126ZM487.173 41.261C486.485 41.8611 486.044 42.7437 485.991 43.7322C485.938 44.8796 486.449 45.9034 487.261 46.5918L472.62 69.398C472.215 69.2038 471.738 69.0802 471.262 69.0449C469.322 68.9567 467.681 70.4571 467.593 72.3988L440.658 71.1102C440.747 69.1685 439.247 67.5092 437.307 67.421C436.654 67.3857 436.037 67.5622 435.49 67.8446L423.09 43.7675C424.166 43.2203 424.942 42.1259 425.013 40.8197C425.065 39.6723 424.554 38.6309 423.725 37.9425L438.348 15.1716C438.771 15.3834 439.23 15.4893 439.706 15.5246C441.346 15.5953 442.775 14.5361 443.234 13.0181L470.433 14.3243C470.733 15.8777 472.056 17.078 473.696 17.1486C474.031 17.1663 474.349 17.1133 474.666 17.0427L487.173 41.261ZM574.786 74.3758C574.327 74.111 573.798 73.9345 573.233 73.9168C571.293 73.8286 569.653 75.329 569.547 77.2707L542.612 75.9821C542.7 74.0404 541.201 72.3811 539.261 72.2929C538.679 72.2576 538.149 72.3988 537.655 72.6106L525.255 48.5512C526.225 47.9687 526.913 46.9272 526.966 45.6916C527.019 44.6148 526.578 43.644 525.855 42.9732L540.531 20.1141C540.883 20.2553 541.271 20.3612 541.677 20.3789C543.318 20.4495 544.746 19.3904 545.205 17.8723L572.404 19.1786C572.704 20.7319 574.027 21.9323 575.668 22.0029C576.091 22.0205 576.479 21.9499 576.867 21.844L589.303 45.9917C588.509 46.6095 587.98 47.5274 587.927 48.6041C587.856 49.8221 588.438 50.9342 589.373 51.6049L574.786 74.3758ZM522.151 101.648C521.78 101.489 521.41 101.383 520.987 101.365C519.187 101.277 517.67 102.566 517.371 104.296L490.312 103.007C490.189 101.259 488.778 99.8297 486.996 99.7414C486.432 99.7061 485.903 99.8297 485.426 100.042L472.832 75.5938C473.837 75.0112 474.543 73.9698 474.614 72.7165C474.666 71.6221 474.19 70.6336 473.449 69.9452L488.125 47.1037C488.513 47.2802 488.919 47.3862 489.36 47.4038C491 47.4744 492.429 46.4153 492.888 44.8973L520.069 46.2035C520.369 47.7569 521.692 48.9572 523.333 49.0278C523.721 49.0454 524.109 48.9925 524.461 48.8866L536.915 73.0695C536.156 73.6873 535.662 74.5876 535.609 75.6291C535.556 76.8294 536.103 77.9061 536.985 78.5769L522.151 101.648ZM534.11 132.538C533.422 133.139 532.964 134.021 532.928 135.01C532.875 136.157 533.369 137.181 534.198 137.869L519.558 160.658C519.152 160.464 518.694 160.34 518.2 160.305C516.259 160.217 514.619 161.717 514.531 163.659L487.596 162.37C487.684 160.428 486.185 158.787 484.244 158.681C483.592 158.646 482.974 158.804 482.428 159.104L470.027 135.045C471.121 134.48 471.879 133.403 471.95 132.097C472.003 130.95 471.491 129.908 470.662 129.22L485.285 106.449C485.691 106.643 486.167 106.767 486.643 106.802C488.301 106.873 489.713 105.814 490.171 104.296L517.371 105.602C517.67 107.155 518.993 108.356 520.634 108.426C520.969 108.444 521.304 108.391 521.604 108.32L534.11 132.538ZM583.852 165.053C583.005 165.653 582.423 166.624 582.37 167.736C582.318 168.848 582.811 169.872 583.588 170.543L568.965 193.314C568.594 193.155 568.224 193.049 567.801 193.031C566.001 192.943 564.484 194.232 564.185 195.961L537.126 194.673C537.003 192.925 535.609 191.496 533.81 191.407C533.246 191.39 532.717 191.496 532.223 191.725L519.487 166.995C520.634 166.465 521.463 165.336 521.533 163.976C521.586 162.935 521.163 161.964 520.457 161.293L535.151 138.417C535.504 138.558 535.874 138.664 536.28 138.681C537.779 138.752 539.084 137.869 539.649 136.598L566.619 137.887C566.742 139.635 568.153 141.047 569.935 141.153C570.446 141.17 570.958 141.082 571.399 140.888L583.852 165.053Z" fill="#ADC4FF"/>
</svg>
