<?xml version="1.0" encoding="utf-8"?>
<!-- Generator: Adobe Illustrator 25.2.0, SVG Export Plug-In . SVG Version: 6.00 Build 0)  -->
<svg version="1.1" id="Layer_1" xmlns="http://www.w3.org/2000/svg" xmlns:xlink="http://www.w3.org/1999/xlink" x="0px" y="0px"
	 viewBox="0 0 253.91 94.3" style="enable-background:new 0 0 253.91 94.3;" xml:space="preserve">
<style type="text/css">
	.st0{fill:url(#SVGID_1_);}
	.st1{opacity:0.35;}
	.st2{clip-path:url(#SVGID_3_);}
	.st3{opacity:0.36;}
	.st4{clip-path:url(#SVGID_4_);}
	.st5{fill:#005EEF;}
	.st6{clip-path:url(#SVGID_5_);}
	.st7{fill:#58595B;}
	.st8{fill:#1BB5F2;}
	.st9{opacity:0.63;}
	.st10{fill:#231F20;}
	.st11{fill:#F1F2F2;}
	.st12{fill:#808285;}
	.st13{fill:url(#SVGID_6_);}
	.st14{fill:url(#SVGID_7_);}
	.st15{opacity:0.25;fill:#231F20;}
	.st16{opacity:0.25;fill:#FFFFFF;}
	.st17{filter:url(#Adobe_OpacityMaskFilter);}
	.st18{opacity:0.54;fill:#FFFFFF;}
	.st19{opacity:0.61;mask:url(#SVGID_9_);}
	.st20{opacity:0.44;}
	.st21{fill:#FFFFFF;}
	.st22{fill:none;}
	.st23{fill:none;stroke:#231F20;stroke-width:0.3;stroke-miterlimit:10;}
	.st24{fill:none;stroke:#231F20;stroke-width:0.3;stroke-miterlimit:10;stroke-dasharray:2.9666,2.9666;}
	.st25{fill:none;stroke:#231F20;stroke-width:0.3;stroke-miterlimit:10;stroke-dasharray:3.0004;}
	.st26{fill:none;stroke:#231F20;stroke-width:1.1252;stroke-miterlimit:10;}
	.st27{fill:none;stroke:#FFF100;stroke-width:1.1252;stroke-miterlimit:10;}
	.st28{fill:none;stroke:#EC1C24;stroke-width:1.5002;stroke-miterlimit:10;}
	.st29{fill:none;stroke:#EC1C24;stroke-width:1.6734;stroke-miterlimit:10;}
	.st30{fill:none;stroke:#EC1C24;stroke-width:0.4501;stroke-miterlimit:10;}
	.st31{fill:url(#SVGID_10_);}
	.st32{fill:url(#SVGID_11_);}
	.st33{fill:url(#SVGID_12_);}
	.st34{fill:url(#SVGID_13_);}
	.st35{fill:url(#SVGID_15_);}
	.st36{fill:url(#SVGID_16_);}
	.st37{fill:url(#SVGID_17_);}
	.st38{fill:none;stroke:#231F20;stroke-width:0.2004;stroke-miterlimit:10;}
	.st39{fill:url(#SVGID_18_);}
</style>
<g>
	<linearGradient id="SVGID_1_" gradientUnits="userSpaceOnUse" x1="0" y1="47.1524" x2="87.5052" y2="47.1524">
		<stop  offset="0" style="stop-color:#1BB5F2"/>
		<stop  offset="1" style="stop-color:#044BD9"/>
	</linearGradient>
	<path class="st0" d="M47.78,3.59c0.16,0.84,0.3,1.69,0.41,2.54c-0.79,0.59-1.57,1.21-2.34,1.84c20.66,1.09,37.14,18.25,37.14,39.18
		c0,17.3-11.25,32.01-26.82,37.22c-1.86,2.17-3.88,4.2-6.05,6.07c21.14-3.08,37.38-21.29,37.38-43.29
		C87.51,24.35,70.06,5.62,47.78,3.59z M41.65,86.33C20.99,85.23,4.51,68.08,4.51,47.15c0-17.3,11.25-32.01,26.82-37.22
		c1.86-2.17,3.88-4.2,6.05-6.07C16.24,6.95,0,25.15,0,47.15c0,22.8,17.45,41.53,39.72,43.56c-0.16-0.84-0.3-1.69-0.41-2.54
		C40.1,87.58,40.88,86.96,41.65,86.33z M56.77,30.53l-8.93-8.93c0.37-1.47,0.67-2.98,0.88-4.51l7.57,7.57
		C56.58,26.58,56.74,28.54,56.77,30.53z M56.51,35.67c-0.17,1.56-0.43,3.1-0.78,4.61l-10.8-10.8c0.6-1.22,1.14-2.48,1.62-3.77
		L56.51,35.67z M54.54,44.48c-0.45,1.31-0.96,2.6-1.54,3.85L40.83,36.15c0.78-1.03,1.51-2.09,2.19-3.2L54.54,44.48z M51.15,51.87
		c-0.65,1.13-1.36,2.22-2.12,3.27l-12.7-12.69c0.65-1.13,1.36-2.22,2.12-3.27L51.15,51.87z M46.67,58.17
		c-0.78,1.03-1.51,2.09-2.19,3.2L32.96,49.85c0.45-1.31,0.96-2.6,1.53-3.85L46.67,58.17z M42.56,64.84
		c-0.6,1.22-1.14,2.49-1.62,3.78l-9.96-9.96c0.17-1.56,0.43-3.1,0.78-4.61L42.56,64.84z M39.66,72.73
		c-0.38,1.47-0.67,2.97-0.88,4.51l-7.56-7.56c-0.3-1.92-0.46-3.88-0.49-5.87L39.66,72.73z M41.25,84.3
		c-0.02-0.47-0.03-0.95-0.03-1.44c0-9.37,3.14-18,8.42-24.9c0.01-0.02,0.02-0.03,0.04-0.05c0.47-0.55,0.93-1.11,1.38-1.69
		c0.01-0.01,0.02-0.03,0.03-0.04c5.34-6.97,8.5-15.69,8.5-25.15c0-7.67-2.09-14.86-5.73-21.02c5.43,6.29,9.49,13.79,11.77,22.02
		c0.11,0.4,0.21,0.79,0.31,1.19c0.19,4.13-0.05,8.27-0.72,12.33c-0.08,0.69-0.24,1.37-0.37,2.05c-0.14,0.68-0.27,1.36-0.42,2.04
		l-0.52,2.01l-0.26,1c-0.1,0.33-0.21,0.65-0.31,0.99l-0.64,1.98c-0.21,0.65-0.49,1.29-0.73,1.94c-0.46,1.3-1.05,2.55-1.61,3.8
		c-0.27,0.64-0.6,1.24-0.92,1.85c-0.32,0.61-0.62,1.23-0.95,1.83l-1.05,1.78l-0.52,0.89l-0.58,0.86l-1.14,1.71l-1.22,1.65
		c-0.8,1.12-1.72,2.13-2.58,3.19C48.38,78.56,44.95,81.64,41.25,84.3z M67.68,47.22c0,4.88-0.62,9.63-1.77,14.15
		C62.44,74.96,54.09,86.6,42.84,94.3c-0.58-1.99-1-4.03-1.27-6.13c4.4-3.31,8.39-7.15,11.78-11.46c0.85-1.15,1.75-2.25,2.52-3.45
		c0.39-0.59,0.8-1.18,1.19-1.78l1.09-1.83l0.54-0.92l0.5-0.94l0.99-1.88c0.32-0.64,0.6-1.29,0.9-1.94c0.29-0.64,0.6-1.28,0.84-1.95
		c0.52-1.32,1.06-2.63,1.47-3.98c0.21-0.68,0.46-1.34,0.64-2.03l0.54-2.04c0.09-0.34,0.19-0.68,0.27-1.03l0.21-1.04l0.43-2.07
		c0.12-0.69,0.21-1.39,0.32-2.09c0.1-0.7,0.23-1.39,0.28-2.09c0.42-3.67,0.48-7.36,0.22-11.02c0.72,3.21,1.17,6.51,1.33,9.9
		C67.66,45.42,67.68,46.32,67.68,47.22z M51.06,56.21 M49.65,57.96 M46.25,10c0.02,0.47,0.03,0.95,0.03,1.44
		c0,9.37-3.14,18-8.42,24.9c-0.01,0.02-0.02,0.03-0.04,0.05c-0.47,0.55-0.93,1.11-1.38,1.69c-0.01,0.01-0.02,0.03-0.03,0.04
		c-5.34,6.97-8.5,15.69-8.5,25.15c0,7.67,2.09,14.86,5.73,21.02c-5.43-6.29-9.49-13.79-11.77-22.02c-0.11-0.4-0.21-0.79-0.31-1.19
		c-0.19-4.13,0.05-8.27,0.72-12.33c0.08-0.69,0.24-1.37,0.37-2.05c0.14-0.68,0.27-1.36,0.42-2.04l0.52-2.01l0.26-1
		c0.1-0.33,0.21-0.65,0.31-0.99l0.64-1.98c0.21-0.65,0.49-1.29,0.73-1.94c0.46-1.3,1.05-2.55,1.61-3.8c0.27-0.64,0.6-1.24,0.92-1.85
		c0.32-0.61,0.62-1.23,0.95-1.83l1.05-1.78l0.52-0.89l0.58-0.86l1.14-1.71l1.22-1.65c0.8-1.12,1.72-2.13,2.58-3.19
		C39.13,15.75,42.56,12.67,46.25,10z M19.83,47.08c0-4.88,0.62-9.63,1.77-14.15C25.06,19.34,33.41,7.7,44.66,0
		c0.58,1.99,1,4.03,1.27,6.13c-4.4,3.31-8.39,7.15-11.78,11.46c-0.85,1.15-1.75,2.25-2.52,3.45c-0.39,0.59-0.8,1.18-1.19,1.78
		l-1.09,1.83l-0.54,0.92l-0.5,0.94l-0.99,1.88c-0.32,0.64-0.6,1.29-0.9,1.94c-0.29,0.64-0.6,1.28-0.84,1.95
		c-0.52,1.32-1.06,2.63-1.47,3.98c-0.21,0.68-0.46,1.34-0.64,2.03l-0.54,2.04c-0.09,0.34-0.19,0.68-0.27,1.03l-0.21,1.04l-0.43,2.07
		c-0.12,0.69-0.21,1.39-0.32,2.09c-0.1,0.7-0.23,1.39-0.28,2.09c-0.42,3.67-0.48,7.36-0.22,11.02c-0.72-3.21-1.17-6.51-1.33-9.9
		C19.84,48.88,19.83,47.99,19.83,47.08z M36.44,38.09 M37.86,36.35 M51.06,56.21 M49.65,57.96 M19.83,47.08
		c0-4.88,0.62-9.63,1.77-14.15C25.06,19.34,33.41,7.7,44.66,0c0.58,1.99,1,4.03,1.27,6.13c-4.4,3.31-8.39,7.15-11.78,11.46
		c-0.85,1.15-1.75,2.25-2.52,3.45c-0.39,0.59-0.8,1.18-1.19,1.78l-1.09,1.83l-0.54,0.92l-0.5,0.94l-0.99,1.88
		c-0.32,0.64-0.6,1.29-0.9,1.94c-0.29,0.64-0.6,1.28-0.84,1.95c-0.52,1.32-1.06,2.63-1.47,3.98c-0.21,0.68-0.46,1.34-0.64,2.03
		l-0.54,2.04c-0.09,0.34-0.19,0.68-0.27,1.03l-0.21,1.04l-0.43,2.07c-0.12,0.69-0.21,1.39-0.32,2.09c-0.1,0.7-0.23,1.39-0.28,2.09
		c-0.42,3.67-0.48,7.36-0.22,11.02c-0.72-3.21-1.17-6.51-1.33-9.9C19.84,48.88,19.83,47.99,19.83,47.08z"/>
	<g>
		<g>
			<path class="st7" d="M104.75,18.72h14.23c3.32,0,5.94,0.85,7.84,2.54c1.9,1.69,2.85,4.02,2.85,6.98c0,2.42-0.91,4.44-2.72,6.07
				c2.72,1.75,4.08,4.37,4.08,7.84c0,3.23-1.07,5.76-3.19,7.59s-5.08,2.74-8.86,2.74h-14.23V18.72z M119.3,31.82
				c1.27,0,2.28-0.37,3.04-1.11c0.76-0.74,1.13-1.7,1.13-2.88s-0.38-2.11-1.13-2.81c-0.76-0.69-1.77-1.04-3.04-1.04h-8.38v7.84
				H119.3z M119.61,47.04c1.57,0,2.84-0.44,3.81-1.34c0.97-0.89,1.45-2.08,1.45-3.56c0-1.48-0.48-2.67-1.43-3.58
				c-0.95-0.91-2.23-1.36-3.83-1.36h-8.7v9.83H119.61z"/>
			<path class="st7" d="M134.88,19.63c0.6-0.6,1.43-0.91,2.49-0.91c1.09,0,1.93,0.3,2.54,0.91c0.6,0.6,0.91,1.45,0.91,2.54
				c0,1.06-0.29,1.89-0.88,2.49c-0.59,0.6-1.44,0.91-2.56,0.91c-1.06,0-1.89-0.3-2.49-0.91c-0.6-0.6-0.91-1.43-0.91-2.49
				C133.98,21.08,134.28,20.23,134.88,19.63z M134.43,28.96h5.93v24.06h-5.93V28.96z"/>
			<path class="st7" d="M150.2,51.34c-1.99-1.12-3.57-2.66-4.73-4.62c-1.16-1.96-1.75-4.15-1.75-6.57c0-2.42,0.57-4.61,1.72-6.57
				c1.15-1.96,2.72-3.5,4.71-4.62c1.99-1.12,4.2-1.68,6.62-1.68c2.39,0,4.57,0.56,6.55,1.68c1.98,1.12,3.55,2.66,4.71,4.62
				c1.16,1.96,1.74,4.15,1.74,6.57c0,2.45-0.58,4.65-1.74,6.62c-1.16,1.96-2.74,3.5-4.73,4.6c-1.99,1.1-4.17,1.65-6.52,1.65
				C154.38,53.02,152.19,52.46,150.2,51.34z M151.81,45.48c1.28,1.4,2.94,2.11,4.96,2.11c1.3,0,2.46-0.32,3.49-0.95
				c1.03-0.63,1.83-1.52,2.42-2.65c0.59-1.13,0.88-2.41,0.88-3.83c0-1.39-0.29-2.65-0.88-3.78c-0.59-1.13-1.4-2.02-2.42-2.67
				c-1.03-0.65-2.19-0.97-3.49-0.97c-1.33,0-2.51,0.32-3.56,0.97c-1.04,0.65-1.86,1.53-2.45,2.65c-0.59,1.12-0.88,2.39-0.88,3.81
				C149.88,42.3,150.52,44.07,151.81,45.48z"/>
			<path class="st7" d="M170.41,27.83h6.25l5.17,15.54l5.48-15.54h5.26l5.44,15.5l5.17-15.5h6.25l-8.47,24.65h-5.3l-5.71-16.63
				l-5.8,16.63h-5.26L170.41,27.83z"/>
			<path class="st7" d="M216.19,51.3c-1.92-1.15-3.41-2.7-4.49-4.67c-1.07-1.96-1.61-4.14-1.61-6.52c0-2.42,0.54-4.6,1.61-6.55
				c1.07-1.95,2.54-3.48,4.4-4.6c1.86-1.12,3.93-1.68,6.23-1.68c2.48,0,4.62,0.54,6.43,1.61c1.81,1.07,3.19,2.53,4.15,4.37
				c0.95,1.84,1.43,3.87,1.43,6.07c0,1.03-0.11,1.86-0.32,2.49h-17.76c0.18,1.81,0.88,3.26,2.08,4.35c1.21,1.09,2.7,1.63,4.49,1.63
				c1.33,0,2.47-0.28,3.42-0.84c0.95-0.56,1.71-1.34,2.29-2.33l4.8,2.36c-0.76,1.81-2.08,3.27-3.99,4.37
				c-1.9,1.1-4.09,1.65-6.57,1.65C220.31,53.02,218.11,52.45,216.19,51.3z M228,37.3c-0.15-1.51-0.74-2.74-1.77-3.69
				c-1.03-0.95-2.33-1.43-3.9-1.43c-1.51,0-2.79,0.45-3.85,1.34c-1.06,0.89-1.75,2.15-2.08,3.78H228z"/>
			<path class="st7" d="M237.69,18.72h5.93v34.3h-5.93V18.72z"/>
			<path class="st7" d="M247.98,18.72h5.93v34.3h-5.93V18.72z"/>
		</g>
		<g>
			<path class="st7" d="M104.75,60.94h1.43v1.55c0.42-0.56,0.95-1,1.6-1.31c0.64-0.31,1.36-0.47,2.15-0.47
				c0.96,0,1.82,0.23,2.59,0.7c0.77,0.46,1.37,1.1,1.81,1.92c0.43,0.82,0.65,1.73,0.65,2.73s-0.22,1.92-0.66,2.73
				c-0.44,0.82-1.04,1.46-1.81,1.92c-0.76,0.47-1.62,0.7-2.58,0.7c-0.79,0-1.51-0.17-2.17-0.5c-0.66-0.33-1.18-0.8-1.58-1.4v5.48
				h-1.43V60.94z M106.67,68.05c0.32,0.6,0.77,1.07,1.33,1.41c0.56,0.34,1.18,0.52,1.85,0.52s1.29-0.17,1.84-0.52
				c0.55-0.34,0.98-0.81,1.29-1.4c0.31-0.59,0.47-1.26,0.47-2s-0.16-1.4-0.47-2c-0.31-0.59-0.74-1.06-1.29-1.4
				c-0.55-0.34-1.16-0.52-1.84-0.52s-1.29,0.17-1.85,0.52c-0.56,0.34-1,0.82-1.33,1.41c-0.32,0.6-0.49,1.26-0.49,1.99
				S106.35,67.45,106.67,68.05z"/>
			<path class="st7" d="M117.5,56.72h1.43v5.48c0.31-0.47,0.72-0.84,1.23-1.1c0.51-0.26,1.09-0.39,1.71-0.39
				c0.71,0,1.36,0.17,1.95,0.5c0.59,0.33,1.05,0.79,1.39,1.38c0.34,0.59,0.51,1.23,0.51,1.95v6.65h-1.43v-6.1
				c0-0.9-0.25-1.62-0.75-2.15c-0.5-0.53-1.13-0.79-1.91-0.79s-1.42,0.27-1.93,0.8s-0.76,1.25-0.76,2.14v6.1h-1.43V56.72z"/>
			<path class="st7" d="M129.68,71.04c-0.52-0.25-0.92-0.59-1.21-1.03c-0.29-0.44-0.44-0.93-0.44-1.48c0-0.83,0.27-1.53,0.81-2.1
				c0.54-0.57,1.36-0.95,2.45-1.13l3.71-0.61v-0.54c0-0.61-0.22-1.11-0.67-1.49c-0.45-0.38-1.03-0.57-1.74-0.57
				c-0.61,0-1.15,0.15-1.62,0.46c-0.47,0.31-0.83,0.71-1.07,1.22l-1.3-0.71c0.29-0.66,0.82-1.22,1.58-1.67
				c0.76-0.45,1.56-0.68,2.42-0.68c0.74,0,1.4,0.15,1.99,0.44c0.59,0.29,1.04,0.7,1.37,1.22c0.32,0.52,0.49,1.12,0.49,1.78v7.03H135
				v-1.47c-0.34,0.51-0.83,0.92-1.47,1.23s-1.34,0.47-2.12,0.47C130.77,71.42,130.2,71.29,129.68,71.04z M130.11,69.64
				c0.37,0.32,0.83,0.48,1.4,0.48c0.68,0,1.28-0.15,1.82-0.44c0.54-0.29,0.95-0.7,1.24-1.21c0.29-0.51,0.44-1.09,0.44-1.71v-0.76
				l-3.36,0.55c-0.71,0.11-1.24,0.34-1.58,0.68c-0.34,0.34-0.51,0.76-0.51,1.25C129.56,68.93,129.74,69.32,130.11,69.64z"/>
			<path class="st7" d="M139.38,60.94h1.43v1.11c0.27-0.4,0.63-0.7,1.09-0.92c0.46-0.22,0.99-0.33,1.61-0.33h0.65v1.43h-0.9
				c-0.75,0-1.35,0.23-1.79,0.7c-0.44,0.46-0.66,1.11-0.66,1.94v6.31h-1.43V60.94z"/>
			<path class="st7" d="M145.84,60.94h1.43v1.26c0.31-0.47,0.71-0.84,1.21-1.1c0.5-0.26,1.05-0.39,1.63-0.39
				c0.7,0,1.34,0.18,1.93,0.53c0.59,0.35,1.04,0.82,1.36,1.42c0.31-0.62,0.75-1.11,1.33-1.44c0.58-0.34,1.21-0.51,1.9-0.51
				c0.69,0,1.32,0.17,1.9,0.51c0.58,0.34,1.04,0.8,1.4,1.38s0.53,1.23,0.53,1.94v6.65h-1.43v-6.1c0-0.9-0.24-1.62-0.72-2.15
				c-0.48-0.53-1.09-0.79-1.84-0.79c-0.75,0-1.37,0.27-1.86,0.8s-0.74,1.25-0.74,2.14v6.1h-1.43v-6.1c0-0.9-0.24-1.62-0.72-2.15
				c-0.48-0.53-1.09-0.79-1.84-0.79c-0.75,0-1.37,0.27-1.86,0.8c-0.49,0.54-0.74,1.25-0.74,2.14v6.1h-1.43V60.94z"/>
			<path class="st7" d="M164.43,71.04c-0.52-0.25-0.92-0.59-1.21-1.03c-0.29-0.44-0.44-0.93-0.44-1.48c0-0.83,0.27-1.53,0.81-2.1
				c0.54-0.57,1.36-0.95,2.45-1.13l3.71-0.61v-0.54c0-0.61-0.22-1.11-0.67-1.49c-0.45-0.38-1.03-0.57-1.74-0.57
				c-0.61,0-1.15,0.15-1.62,0.46c-0.47,0.31-0.83,0.71-1.07,1.22l-1.3-0.71c0.29-0.66,0.82-1.22,1.58-1.67
				c0.76-0.45,1.56-0.68,2.42-0.68c0.74,0,1.4,0.15,1.99,0.44c0.59,0.29,1.04,0.7,1.37,1.22c0.32,0.52,0.49,1.12,0.49,1.78v7.03
				h-1.43v-1.47c-0.34,0.51-0.83,0.92-1.47,1.23s-1.34,0.47-2.12,0.47C165.52,71.42,164.94,71.29,164.43,71.04z M164.85,69.64
				c0.37,0.32,0.83,0.48,1.4,0.48c0.68,0,1.28-0.15,1.82-0.44c0.54-0.29,0.95-0.7,1.24-1.21c0.29-0.51,0.44-1.09,0.44-1.71v-0.76
				l-3.36,0.55c-0.71,0.11-1.24,0.34-1.58,0.68c-0.34,0.34-0.51,0.76-0.51,1.25C164.3,68.93,164.49,69.32,164.85,69.64z"/>
			<path class="st7" d="M176.12,70.72c-0.78-0.46-1.39-1.1-1.82-1.92s-0.65-1.73-0.65-2.75c0-1.01,0.22-1.92,0.65-2.73
				c0.43-0.82,1.04-1.45,1.82-1.91c0.78-0.46,1.68-0.69,2.69-0.69c0.94,0,1.82,0.25,2.62,0.74c0.8,0.49,1.37,1.12,1.7,1.88
				l-1.3,0.67c-0.27-0.56-0.67-1.01-1.21-1.35c-0.54-0.34-1.14-0.51-1.81-0.51c-0.66,0-1.27,0.17-1.83,0.51
				c-0.55,0.34-0.99,0.81-1.32,1.4c-0.33,0.6-0.49,1.27-0.49,2.01c0,0.73,0.16,1.39,0.49,1.99c0.32,0.6,0.76,1.07,1.32,1.41
				s1.16,0.52,1.83,0.52c0.68,0,1.28-0.17,1.82-0.51c0.54-0.34,0.94-0.8,1.2-1.39l1.3,0.71c-0.34,0.75-0.92,1.37-1.72,1.87
				s-1.67,0.75-2.6,0.75C177.8,71.42,176.91,71.18,176.12,70.72z"/>
			<path class="st7" d="M187.67,70.72c-0.78-0.46-1.39-1.11-1.84-1.93c-0.45-0.82-0.67-1.74-0.67-2.76c0-1.01,0.21-1.91,0.64-2.72
				c0.43-0.81,1.02-1.44,1.77-1.9c0.75-0.46,1.59-0.69,2.52-0.69c0.94,0,1.77,0.23,2.48,0.69c0.71,0.46,1.26,1.06,1.65,1.82
				c0.39,0.75,0.58,1.54,0.58,2.37c0,0.32-0.03,0.62-0.08,0.92h-8.06c0.01,0.71,0.19,1.34,0.53,1.88c0.34,0.54,0.78,0.96,1.32,1.25
				c0.54,0.29,1.12,0.44,1.73,0.44c1.34,0,2.38-0.62,3.13-1.87l1.22,0.65c-0.33,0.73-0.89,1.33-1.67,1.82
				c-0.78,0.49-1.68,0.74-2.68,0.74C189.31,71.42,188.45,71.18,187.67,70.72z M193.27,65.17c0-0.59-0.14-1.12-0.43-1.6
				c-0.29-0.48-0.67-0.85-1.16-1.12c-0.49-0.27-1.01-0.4-1.59-0.4c-0.56,0-1.09,0.13-1.58,0.38c-0.49,0.26-0.9,0.62-1.22,1.09
				c-0.32,0.47-0.52,1.02-0.58,1.64H193.27z"/>
			<path class="st7" d="M199.03,70.91c-0.59-0.34-1.05-0.81-1.39-1.42c-0.34-0.61-0.51-1.31-0.51-2.08v-6.46h1.43v6.29
				c0,0.83,0.25,1.49,0.74,2c0.49,0.5,1.13,0.76,1.92,0.76c0.8,0,1.45-0.26,1.95-0.79c0.5-0.53,0.74-1.25,0.74-2.15v-6.1h1.43v10.24
				h-1.43v-1.26c-0.31,0.47-0.72,0.84-1.23,1.1c-0.52,0.26-1.09,0.39-1.71,0.39C200.26,71.42,199.61,71.25,199.03,70.91z"/>
			<path class="st7" d="M210.09,70.5c-0.5-0.54-0.75-1.3-0.75-2.29v-5.83h-1.89v-1.43h0.48c0.42,0,0.76-0.14,1.02-0.42
				c0.26-0.28,0.39-0.64,0.39-1.09v-0.86h1.43v2.37h2.26v1.43h-2.26v5.83c0,0.56,0.13,0.99,0.38,1.3c0.26,0.31,0.69,0.46,1.3,0.46
				c0.28,0,0.52-0.02,0.73-0.06v1.3c-0.25,0.06-0.58,0.1-0.97,0.1C211.3,71.3,210.59,71.03,210.09,70.5z"/>
			<path class="st7" d="M215.77,57.58c0.18-0.18,0.4-0.27,0.67-0.27s0.49,0.09,0.67,0.27c0.18,0.18,0.27,0.4,0.27,0.67
				s-0.09,0.49-0.27,0.67c-0.18,0.18-0.4,0.27-0.67,0.27s-0.49-0.09-0.67-0.27c-0.18-0.18-0.27-0.4-0.27-0.67
				S215.59,57.76,215.77,57.58z M215.71,60.94h1.43v10.24h-1.43V60.94z"/>
			<path class="st7" d="M222.08,70.72c-0.78-0.46-1.39-1.1-1.82-1.92s-0.65-1.73-0.65-2.75c0-1.01,0.22-1.92,0.65-2.73
				c0.43-0.82,1.04-1.45,1.82-1.91c0.78-0.46,1.68-0.69,2.69-0.69c0.94,0,1.82,0.25,2.62,0.74c0.8,0.49,1.37,1.12,1.7,1.88
				l-1.3,0.67c-0.27-0.56-0.67-1.01-1.21-1.35c-0.54-0.34-1.14-0.51-1.81-0.51c-0.66,0-1.27,0.17-1.83,0.51
				c-0.55,0.34-0.99,0.81-1.32,1.4c-0.33,0.6-0.49,1.27-0.49,2.01c0,0.73,0.16,1.39,0.49,1.99c0.32,0.6,0.76,1.07,1.32,1.41
				s1.16,0.52,1.83,0.52c0.68,0,1.28-0.17,1.82-0.51c0.54-0.34,0.94-0.8,1.2-1.39l1.3,0.71c-0.34,0.75-0.92,1.37-1.72,1.87
				c-0.8,0.5-1.67,0.75-2.6,0.75C223.76,71.42,222.87,71.18,222.08,70.72z"/>
			<path class="st7" d="M232.6,71.04c-0.52-0.25-0.92-0.59-1.21-1.03c-0.29-0.44-0.44-0.93-0.44-1.48c0-0.83,0.27-1.53,0.81-2.1
				c0.54-0.57,1.36-0.95,2.45-1.13l3.71-0.61v-0.54c0-0.61-0.22-1.11-0.67-1.49c-0.45-0.38-1.03-0.57-1.74-0.57
				c-0.61,0-1.15,0.15-1.62,0.46c-0.47,0.31-0.83,0.71-1.07,1.22l-1.3-0.71c0.29-0.66,0.82-1.22,1.58-1.67
				c0.76-0.45,1.56-0.68,2.42-0.68c0.74,0,1.4,0.15,1.99,0.44c0.59,0.29,1.04,0.7,1.37,1.22c0.32,0.52,0.49,1.12,0.49,1.78v7.03
				h-1.43v-1.47c-0.34,0.51-0.83,0.92-1.47,1.23s-1.34,0.47-2.12,0.47C233.69,71.42,233.11,71.29,232.6,71.04z M233.02,69.64
				c0.37,0.32,0.83,0.48,1.4,0.48c0.68,0,1.28-0.15,1.82-0.44s0.95-0.7,1.24-1.21c0.29-0.51,0.44-1.09,0.44-1.71v-0.76l-3.36,0.55
				c-0.71,0.11-1.24,0.34-1.58,0.68c-0.34,0.34-0.51,0.76-0.51,1.25C232.47,68.93,232.65,69.32,233.02,69.64z"/>
			<path class="st7" d="M242.29,56.72h1.43v14.47h-1.43V56.72z"/>
			<path class="st7" d="M247.7,70.7c-0.74-0.48-1.28-1.14-1.62-1.98l1.2-0.61c0.31,0.62,0.72,1.12,1.25,1.47
				c0.53,0.36,1.1,0.54,1.73,0.54c0.62,0,1.14-0.15,1.56-0.45c0.41-0.3,0.62-0.69,0.62-1.18c0-0.49-0.19-0.87-0.57-1.17
				c-0.38-0.29-0.77-0.46-1.17-0.5l-1.47-0.17c-0.93-0.24-1.62-0.63-2.06-1.16c-0.45-0.53-0.67-1.14-0.67-1.82
				c0-0.59,0.15-1.11,0.46-1.56c0.31-0.45,0.72-0.8,1.25-1.04c0.53-0.24,1.12-0.36,1.77-0.36c0.85,0,1.63,0.22,2.32,0.67
				c0.69,0.45,1.19,1.05,1.48,1.82l-1.2,0.61c-0.27-0.56-0.64-1-1.12-1.32c-0.48-0.32-1-0.48-1.56-0.48c-0.57,0-1.04,0.14-1.39,0.43
				s-0.53,0.66-0.53,1.12c0,0.49,0.17,0.87,0.51,1.15c0.34,0.28,0.68,0.44,1.02,0.48l1.7,0.19c0.84,0.23,1.5,0.62,1.98,1.18
				c0.48,0.56,0.72,1.2,0.72,1.91c0,0.56-0.15,1.07-0.46,1.51c-0.31,0.45-0.73,0.8-1.29,1.05c-0.55,0.26-1.19,0.38-1.9,0.38
				C249.29,71.42,248.44,71.18,247.7,70.7z"/>
		</g>
	</g>
</g>
</svg>
