<svg id="Layer_1" data-name="Layer 1" xmlns="http://www.w3.org/2000/svg" viewBox="0 0 52 50"><defs><style>.cls-1{fill:#424242;}</style></defs><path class="cls-1" d="M16.55,35.71V31h5.14a14.22,14.22,0,0,0-.39,2.38,14.54,14.54,0,0,0,0,2.38Zm0,11.91a11.34,11.34,0,0,1-8.36-3.48,11.52,11.52,0,0,1-3.46-8.43V14.29a4.54,4.54,0,0,1-3.34-1.4A4.6,4.6,0,0,1,0,9.52V4.76A4.58,4.58,0,0,1,1.39,1.4,4.56,4.56,0,0,1,4.73,0H28.36A4.54,4.54,0,0,1,31.7,1.4a4.58,4.58,0,0,1,1.39,3.36V9.52a4.61,4.61,0,0,1-1.39,3.37,4.52,4.52,0,0,1-3.34,1.4v7.2a14.84,14.84,0,0,0-2.6,2.08,15.34,15.34,0,0,0-2.06,2.62H16.55V21.43h7.09V14.29H9.45V35.71a6.9,6.9,0,0,0,2.07,5.06,6.83,6.83,0,0,0,5,2.09,6.7,6.7,0,0,0,3.22-.78,7.26,7.26,0,0,0,2.45-2.14,19.54,19.54,0,0,0,1.06,2.26,14.55,14.55,0,0,0,1.42,2.09A12.15,12.15,0,0,1,21,46.73,11.32,11.32,0,0,1,16.55,47.62Zm20.09-7.14a5.68,5.68,0,0,0,4.19-1.73,6,6,0,0,0,0-8.45,6,6,0,0,0-8.39,0,6.07,6.07,0,0,0,0,8.45A5.69,5.69,0,0,0,36.64,40.48Zm12,9.52-6.38-6.43a10.43,10.43,0,0,1-2.72,1.25,10.31,10.31,0,0,1-3,.42,10.21,10.21,0,0,1-7.54-3.13A10.39,10.39,0,0,1,26,34.52a10.35,10.35,0,0,1,3.1-7.58,10.63,10.63,0,0,1,15.07,0,10.31,10.31,0,0,1,3.1,7.58,10.47,10.47,0,0,1-1.65,5.72L52,46.67Z"/></svg>