<svg id="Layer_1" data-name="Layer 1" xmlns="http://www.w3.org/2000/svg" viewBox="0 0 77.7 74.3"><defs><style>.cls-1{fill:#fff;fill-opacity:0.5;opacity:0.65;isolation:isolate;}</style></defs><path class="cls-1" d="M25.31,69.64v-65a3.65,3.65,0,0,1,.5-1.86,3.47,3.47,0,0,1,1.33-1.33,3.23,3.23,0,0,1,1.8-.41,3.31,3.31,0,0,1,1.73.63L75.08,34.17a3.89,3.89,0,0,1,0,5.94L30.67,72.61a3.31,3.31,0,0,1-1.73.63,3.14,3.14,0,0,1-1.8-.4,3.56,3.56,0,0,1-1.34-1.33A3.78,3.78,0,0,1,25.31,69.64Z"/><path class="cls-1" d="M1.24,69.64v-65a3.74,3.74,0,0,1,.49-1.86A3.56,3.56,0,0,1,3.07,1.46a3.22,3.22,0,0,1,1.79-.41,3.38,3.38,0,0,1,1.74.63L51,34.17a3.89,3.89,0,0,1,0,5.94L6.6,72.61a3.32,3.32,0,0,1-1.74.63,3.13,3.13,0,0,1-1.79-.4,3.49,3.49,0,0,1-1.34-1.33A3.78,3.78,0,0,1,1.24,69.64Z"/></svg>