<svg width="20" height="35" viewBox="0 0 20 35" fill="none" xmlns="http://www.w3.org/2000/svg">
<path d="M0.764799 34.2296C0.275099 33.7362 -1.68988e-07 33.067 -2.29985e-07 32.3693C-2.90982e-07 31.6716 0.275098 31.0024 0.764799 30.509L13.6949 17.4841L0.764796 4.45927C0.288974 3.963 0.0256854 3.29833 0.0316382 2.60842C0.037589 1.9185 0.312304 1.25855 0.796615 0.770685C1.28093 0.282823 1.93608 0.00609747 2.62098 0.000100701C3.30587 -0.00589606 3.9657 0.259325 4.45835 0.738634L19.2352 15.6238C19.7249 16.1172 20 16.7864 20 17.4841C20 18.1818 19.7249 18.851 19.2352 19.3444L4.45836 34.2296C3.96851 34.7229 3.30422 35 2.61158 35C1.91893 35 1.25465 34.7229 0.764799 34.2296Z" fill="#ACACAC"/>
</svg>
